<svg id="Layer_1" data-name="Layer 1" xmlns="http://www.w3.org/2000/svg" viewBox="0 0 800 600"><path d="M367.929,200.709v62.774l-62.813,62.775h78.123V172.034s3.645-14.982,16.925-14.982,16.67,14.982,16.67,14.982V326.258H495.27l-62.813-62.775V200.709L520.7,326.258h.3l16.4-15.5L420.217,123.8H380.632L263.443,310.758l16.309,15.406Z"/><path d="M391.832,255.216v71.042H408.76v-71.3a20.349,20.349,0,0,0-8.724-2.325,15.762,15.762,0,0,0-8.2,2.583"/><rect x="494.151" y="351.253" width="26.302" height="85.185"/><polygon points="373.015 372.952 373.015 351.252 300.915 351.252 274.613 351.252 274.613 436.437 296.32 436.437 373.015 436.437 373.015 414.736 300.915 414.736 300.915 404.695 373.015 404.695 373.015 382.994 300.915 382.994 300.915 372.952 373.015 372.952"/><path d="M192.608,372.952h45.834v12.787H192.608Zm61.265-21.7H177.178l-10.872,10.785v74.4h26.3v-29H225l13.442-16.152v45.148h26.3v-74.4Z"/><polygon points="482.783 428.879 482.783 414.736 482.783 404.695 482.783 382.994 482.783 382.961 456.481 382.961 456.481 382.994 421.647 382.994 421.647 404.695 456.481 404.695 456.481 414.736 410.683 414.736 410.683 372.953 482.783 372.953 482.783 358.872 475.102 351.252 410.683 351.252 392.807 351.252 384.381 359.609 384.381 428.143 392.741 436.437 406.087 436.437 410.683 436.437 456.481 436.437 475.165 436.437 482.783 428.879"/><polygon points="621.913 436.436 629.402 429.008 629.402 414.735 629.402 404.694 629.402 382.993 629.402 382.96 603.097 382.96 603.097 382.993 557.56 382.993 557.56 372.952 616.166 372.952 633.696 351.465 633.696 351.251 557.56 351.251 538.578 351.251 531.258 358.514 531.258 404.694 552.706 404.694 557.56 404.694 603.097 404.694 603.097 414.735 531.258 414.735 531.258 436.436 603.097 436.436 621.913 436.436"/><rect x="500.457" y="456.584" width="5.371" height="19.611"/><path d="M171.923,470.472a1.261,1.261,0,0,1-1.248,1.034c-.036,0-.072-.006-.108-.009v.016H154.721V461.27h16.171v.012a1.261,1.261,0,0,1,1.046,1.239c0,.036-.009.069-.012.1h.015v7.846Zm4.728-8.162a5.99,5.99,0,0,0-5.759-5.723H150V476.2h20.567v0l.081,0a5.994,5.994,0,0,0,6.009-5.723h.006V462.31Z"/><polygon points="240.496 456.586 233.384 465.422 226.268 456.586 220.227 456.586 231.053 470.032 231.053 476.197 235.771 476.197 235.771 469.96 246.541 456.586 240.496 456.586"/><path d="M311.978,456.586v14.841l-14.065-13.954a3.14,3.14,0,0,0-1.008-.565,9.346,9.346,0,0,0-2.342-.322,4.082,4.082,0,0,0-2.93,1.161,4.618,4.618,0,0,0-1.4,2.649v15.8h4.722V461.16l14.164,14.053a3.239,3.239,0,0,0,1.131.728,9.54,9.54,0,0,0,2.538.25,3.391,3.391,0,0,0,2.511-1.161,4.618,4.618,0,0,0,1.4-2.647v-15.8Z"/><path d="M369.919,466.342l2.337-4.728h.547l2.337,4.728Zm7.124-6.791a4.916,4.916,0,0,0-9.025,0l-8.228,16.643h5.257l2.556-5.17h9.855l2.553,5.17h5.26Z"/><path d="M457.093,460.2a4.808,4.808,0,0,0-1.372-2.45,4.069,4.069,0,0,0-2.929-1.164,10.665,10.665,0,0,0-2.342.324,3.337,3.337,0,0,0-1.8,1.709l-5.383,12.594h-.695l-5.383-12.594a3.338,3.338,0,0,0-1.8-1.709,10.679,10.679,0,0,0-2.343-.324,4.077,4.077,0,0,0-2.932,1.164,4.815,4.815,0,0,0-1.368,2.45h-.03V476.2h4.721v-14.36l4.791,11.209a5.6,5.6,0,0,0,4.787,3.151,5.188,5.188,0,0,0,4.6-3.151l4.79-11.209V476.2h4.722V460.2Z"/><path d="M564.913,471.52v-.009h-9.837V471.5a1.258,1.258,0,0,1-1.043-1.235c0-.037.006-.073.009-.109h-.015v-7.843h.018a1.266,1.266,0,0,1,1.248-1.037c.036,0,.072.009.108.012v-.015h20.567v-4.683H555.4v0l-.081,0a5.993,5.993,0,0,0-6.009,5.723H549.3v8.162h.012a5.988,5.988,0,0,0,5.759,5.723h20.892V471.52Z"/><path d="M650,470.141a6.079,6.079,0,0,0-6.081-6.053v0H624.582c-.009,0-.018,0-.027,0a1.47,1.47,0,0,1-1.353-1.477,1.348,1.348,0,0,1,1.353-1.341c.009,0,.018,0,.027,0v0H648.15v-4.683H624.582a6.079,6.079,0,0,0-6.1,6.051,6.2,6.2,0,0,0,6.1,6.189v0H643.9v0h.027a1.34,1.34,0,1,1,0,2.679c-.009,0-.018,0-.027,0v.007H620.351V476.2h23.568v0A6.074,6.074,0,0,0,650,470.141"/></svg>