<svg xmlns="http://www.w3.org/2000/svg" id="Layer_1" data-name="Layer 1" viewBox="0 0 800 600"><defs><style>.cls-1{fill:none;stroke:#000;stroke-miterlimit:16;stroke-width:1.956px;}.cls-2{fill:#b5c4cd;}.cls-3{fill:#fff;}</style></defs><path d="M399.989,61.562l-47.2,109.916C293.085,191.479,250,248.315,250,315.365c0,69.518,46.313,128.056,109.443,145.942l40.625,77.131,40.478-77.131C503.681,443.429,550,384.883,550,315.365c0-67.056-43.1-123.9-102.811-143.893Z"/><path class="cls-1" d="M399.989,61.562l-47.2,109.916C293.085,191.479,250,248.315,250,315.365c0,69.518,46.313,128.056,109.443,145.942l40.625,77.131,40.478-77.131C503.681,443.429,550,384.883,550,315.365c0-67.056-43.1-123.9-102.811-143.893Z"/><path class="cls-2" d="M441.2,419.615l-.143,24.44a135.85,135.85,0,0,0,58.551-37.472L489.632,382.9A113.231,113.231,0,0,1,441.2,419.615M287.256,314.772a112.739,112.739,0,0,1,49.493-93.281L351.3,188.283c-50.787,19.634-86.97,68.854-86.97,126.489a134.711,134.711,0,0,0,9.66,49.971l14.629-33.387a113.394,113.394,0,0,1-1.359-16.584M448.683,188.283l14.564,33.2a111.3,111.3,0,0,1,48.139,109.9l14.628,33.381a134.974,134.974,0,0,0,9.655-49.995c0-57.635-36.177-106.869-86.986-126.489M358.8,419.615l.138,24.44a135.824,135.824,0,0,1-58.532-37.483l9.96-23.686A113.152,113.152,0,0,0,358.8,419.615"/><polygon class="cls-3" points="434.832 237.28 435.451 237.28 479.495 342.136 508.876 342.136 406.956 109.515 406.834 180.093 406.834 342.136 435.526 342.136 434.832 237.28"/><polygon class="cls-3" points="406.834 500.666 434.213 450.009 434.869 368.334 406.834 368.334 406.834 500.666"/><path class="cls-3" d="M505.033,400.474a136.583,136.583,0,0,0,17.884-28.238l-2.027-4.625H491.2Z"/><path class="cls-3" d="M278.135,372.237a136.457,136.457,0,0,0,17.88,28.238l13.835-32.863H280.161Z"/><polygon class="cls-3" points="364.53 237.28 365.148 237.28 364.449 342.136 393.16 342.136 393.16 190.442 393.025 109.515 291.102 342.136 320.486 342.136 364.53 237.28"/><polygon class="cls-3" points="365.766 450.009 393.161 500.699 393.161 368.331 365.109 368.331 365.766 450.009"/><path class="cls-3" d="M507.548,360.7l-1.27-3.992h7.38l-1.194-3.5h-7.305l-1.167-3.668h8.9l-1.256-3.634H498.662l5.641,18.427H518.14l-1.259-3.634ZM494.07,345.91h-10.7c-1.2,0-1.74.776-1.427,2.024l3.634,14.377a2.55,2.55,0,0,0,2.553,2.026h11.313a1.413,1.413,0,0,0,1.491-2.026l-1.51-5.073h-4.317l1.008,3.536h-6.57l-3-11.3H492.9l.945,3.329h4.26l-1.45-4.871a2.7,2.7,0,0,0-2.583-2.024m-21.077,5.555-.583,6.162h3.925ZM474,346.17l10.384,17.737.1.387-.4.043H480.1l-1.772-3.234h-6.329l-.359,3.234h-4.377l-.086-.551L469.7,345.91h4.163Zm-19.54,3.306.892,5.33h5.789l-.986-5.33Zm11.26,6.824a1.532,1.532,0,0,1-1.659,2.026h-8.12l1,6.011h-4.408L449.7,345.91h12.01a2.34,2.34,0,0,1,2.359,2.024Zm-20.618-10.39H435.03a1.675,1.675,0,0,0-1.775,2.024l.435,4.252a2.01,2.01,0,0,0,1.235,1.823l9.628,4.517.313,2.361h-5.922l-.375-3.26h-4.32l.479,4.684a2.181,2.181,0,0,0,2.3,2.026h10.63a1.644,1.644,0,0,0,1.8-2.026l-.671-4.576a2.2,2.2,0,0,0-1.345-1.845L437.85,351.4l-.237-2.042h5.716l.392,2.912h4.273l-.637-4.362a2.211,2.211,0,0,0-2.251-2m-25.158,3.566.694,11.3h6.81l-.921-11.3Zm10.654-1.542,1.357,14.377a1.725,1.725,0,0,1-1.878,2.026H418.5a1.99,1.99,0,0,1-2.139-2.026l-.694-14.377a1.737,1.737,0,0,1,1.836-2.024h10.952a2.063,2.063,0,0,1,2.15,2.024m-19.072,9.285a1.8,1.8,0,0,0,1.934-2l-.294-7.283a1.935,1.935,0,0,0-2.037-2.024H398.982l-.059,18.427h4.406l-.146-14.861h5.838l.124,4.59h-5.308l.027,2.356,6.083,7.915h4.771l-.03-.648-5.138-6.47Zm-23.907-.508H395l.054-3.5h-7.305l.135-3.668h8.907l.038-3.634H383.854l-.921,18.427h13.839l.033-3.634h-9.331Zm-13.891-5.246-2.448,6.162h3.928Zm2.615-5.295,5.019,17.737-.022.387-.408.043h-3.992l-.8-3.234H369.82l-1.343,3.234h-4.37l.078-.551,7.934-17.876h4.16Zm-25.469-.26h-4.169l-3.044,18.427h12.959l.464-3.658h-8.461Zm-14.426,18.427h4.406l3.2-18.427h-4.166Zm-8.742-6.216-1.194-12.211h-3.774l-.394.044-.1.383,2,17.738.035.262h4.152l9.8-17.875.124-.552H334.2Zm-13.75-1.843-3.828-10.187-.062-.181h-4.02l-5.368,18.427h4.382l2.92-10.493,4.074,10.493h4.225l4.525-18.427H316.64Zm-19.372-4.813-3.934,6.162h3.928Zm3.893-5.295.74,17.737-.116.387-.419.043h-3.993l-.019-3.234H288.35l-2.121,3.234h-4.373l.213-.551,12.246-17.876h4.16Z"/></svg>