<svg xmlns="http://www.w3.org/2000/svg" id="Layer_1" data-name="Layer 1" viewBox="0 0 800 600"><path d="M392.291,327.931A82.413,82.413,0,1,1,444.6,181.842a77.384,77.384,0,1,0,5.963,121.941,82.144,82.144,0,0,1-58.275,24.148m62.934-30.171A76.3,76.3,0,1,1,456.687,194.1a82.441,82.441,0,0,1,4.82,96.145,76.05,76.05,0,0,1-6.282,7.513M400,153.13a96.226,96.226,0,1,0,96.215,96.224A96.22,96.22,0,0,0,400,153.13"/><path d="M426.059,312.867a66.32,66.32,0,1,1,34.39-87.237,66.076,66.076,0,0,1-34.39,87.237m35.446-87.7a67.273,67.273,0,1,0,5.6,26.2,67.462,67.462,0,0,0-5.6-26.2"/><path d="M441.359,346.181a105.265,105.265,0,1,1,54.587-138.465,104.908,104.908,0,0,1-54.587,138.465m15.706-185.973a106.434,106.434,0,0,0-57.687-16.98h0a106.4,106.4,0,1,0,57.691,16.98"/><path d="M488.148,322.667a122.185,122.185,0,1,1,25.09-39.347,120.987,120.987,0,0,1-25.09,39.347M512.7,189.7a122.945,122.945,0,1,0-63.738,161.677A122.91,122.91,0,0,0,512.7,189.7"/><path d="M203.142,416.4v-3.66a2.247,2.247,0,0,0-2.224-2.223H159.607a2.244,2.244,0,0,0-2.221,2.223v3.66Zm7.386-3.66V433.4a3.712,3.712,0,0,1-3.726,3.663,3.657,3.657,0,0,1-3.66-3.663v-9.61H157.386v9.61a3.657,3.657,0,0,1-3.662,3.663A3.711,3.711,0,0,1,150,433.4V412.743a9.623,9.623,0,0,1,9.606-9.61h41.311a9.625,9.625,0,0,1,9.61,9.61"/><path d="M348.848,413.4a2.247,2.247,0,0,0-2.221-2.224H303.155v5.884h43.472a2.188,2.188,0,0,0,2.221-2.157Zm-.785,10.916,7.124,7.127a3.7,3.7,0,0,1-5.229,5.229l-9.151-9.088a12.553,12.553,0,0,0-7.45-3.138h-30.2v9.61a3.711,3.711,0,0,1-3.726,3.663,3.657,3.657,0,0,1-3.66-3.663V407.513a3.711,3.711,0,0,1,3.66-3.726h47.2a9.625,9.625,0,0,1,9.607,9.609v1.5a9.51,9.51,0,0,1-8.171,9.413"/><path d="M599.079,430.392H640.39a2.29,2.29,0,0,0,2.224-2.22V413.4a2.29,2.29,0,0,0-2.224-2.22H599.079a2.29,2.29,0,0,0-2.224,2.22v14.776a2.29,2.29,0,0,0,2.224,2.22m41.311-26.605A9.625,9.625,0,0,1,650,413.4v14.776a9.569,9.569,0,0,1-9.61,9.543H599.079a9.569,9.569,0,0,1-9.61-9.543V413.4a9.625,9.625,0,0,1,9.61-9.609Z"/><path d="M459.5,420.11a3.722,3.722,0,0,1,3.736-3.739h29.822a9.19,9.19,0,0,1,3.66.74,9.6,9.6,0,0,1,3,2.025,8.945,8.945,0,0,1,1.986,3.037,9.872,9.872,0,0,1,.7,3.7v1.712a9.855,9.855,0,0,1-.7,3.7,8.922,8.922,0,0,1-1.986,3.036,9.584,9.584,0,0,1-3,2.025,9.139,9.139,0,0,1-3.66.74H452.491a10.5,10.5,0,0,1-5.685-1.556,14.916,14.916,0,0,1-4.245-4.011,19.007,19.007,0,0,1-2.685-5.492,20.067,20.067,0,0,1-.933-5.918,19.185,19.185,0,0,1,.971-5.956,18.194,18.194,0,0,1,2.843-5.454,15.509,15.509,0,0,1,4.514-4.01,11.612,11.612,0,0,1,6-1.557h45.392a3.738,3.738,0,1,1,0,7.475H454.98a8.7,8.7,0,0,0-4.4.974,8.138,8.138,0,0,0-2.647,2.376,8.315,8.315,0,0,0-1.326,3.074,13.671,13.671,0,0,0,0,6.156,8.287,8.287,0,0,0,1.326,3.074,8.116,8.116,0,0,0,2.647,2.376,8.7,8.7,0,0,0,4.4.974h37.762a2.169,2.169,0,0,0,1.673-.857,2.993,2.993,0,0,0,.741-2.027,3.231,3.231,0,0,0-.661-2.022,2.106,2.106,0,0,0-1.753-.857H463.233a3.72,3.72,0,0,1-3.736-3.739"/><path d="M157.391,476.632h10.98l-5.5-10.438ZM150,484.249l11.134-20.386h3.648l11.324,20.386h-3.742l-2.607-5.013H155.965l-2.607,5.013Z"/><path d="M215.92,466.637H201.486v5.69h12.853q2.718,0,3.722,1.006t1,3.8v2.294q0,2.817-.983,3.821c-.655.67-1.905,1-3.742,1H202.432q-2.779,0-3.783-1.013t-1-3.811v-.557l3.167-.734v3.28H216v-6.136H203.185c-1.854,0-3.106-.336-3.764-1.013s-.984-1.945-.984-3.808v-1.775q0-2.8.984-3.808c.658-.677,1.91-1.016,3.764-1.016h10.862c1.816,0,3.065.333,3.755.994a4.748,4.748,0,0,1,1.031,3.482v.424l-2.913.829Z"/><polygon points="253.088 466.637 253.088 484.25 249.691 484.25 249.691 466.637 240.372 466.637 240.372 463.859 262.444 463.859 262.444 466.637 253.088 466.637"/><path d="M299.091,466.5H287.4v7.158h11.691a2.467,2.467,0,0,0,1.737-.465,2.258,2.258,0,0,0,.465-1.62v-2.97a2.262,2.262,0,0,0-.475-1.632,2.428,2.428,0,0,0-1.727-.471m-15.107,17.745V463.863h16.439a4.8,4.8,0,0,1,3.309.933,3.942,3.942,0,0,1,1.015,3.021v4.551a3.9,3.9,0,0,1-1.015,3,4.8,4.8,0,0,1-3.309.936h-2.989l9.319,7.946H301.7l-8.3-7.946h-6v7.946Z"/><path d="M333.038,481.415h16.886V466.636H333.038Zm-3.4-12.732q0-2.776.993-3.8t3.793-1.022h14.1q2.757,0,3.751,1.012t.994,3.809v10.745q0,2.819-.994,3.818t-3.751,1h-14.1q-2.8,0-3.793-1.022t-.993-3.8Z"/><path d="M379.428,484.249V463.863h2.141L396.834,477.5a13.885,13.885,0,0,1,1.108,1.12c.392.436.793.92,1.208,1.445-.1-.658-.184-1.341-.234-2.053s-.076-1.7-.076-2.964V463.863h3.125v20.386h-1.91l-15.668-14.177c-.079-.063-.193-.168-.348-.307a8.832,8.832,0,0,1-1.717-1.99c.079.617.136,1.278.174,1.977s.057,1.528.057,2.48v12.017Z"/><path d="M431.76,476.632h10.98l-5.5-10.438Zm-7.389,7.617,11.135-20.386h3.647l11.324,20.386h-3.742l-2.607-5.013H430.334l-2.607,5.013Z"/><path d="M474.7,463.861v17.552h14.858V463.861h3.359v15.566q0,2.818-.993,3.821t-3.755,1h-12.1q-2.781,0-3.783-1.022c-.668-.68-1-1.949-1-3.8V463.861Z"/><polygon points="527.245 466.637 527.245 484.25 523.848 484.25 523.848 466.637 514.529 466.637 514.529 463.859 536.602 463.859 536.602 466.637 527.245 466.637"/><rect x="555.963" y="463.86" width="3.144" height="20.39"/><path d="M601.27,466.637H587.128v14.778H601.27V476.3l3.416.711v2.411q0,2.817-.983,3.821t-3.765,1H588.516q-2.779,0-3.783-1.013t-1-3.811V468.683q0-2.8,1-3.808t3.783-1.016h11.422q2.781,0,3.765,1t.983,3.821v1.927l-3.416.639Z"/><path d="M646.851,466.637H632.417v5.69h12.849q2.724,0,3.726,1.006t1,3.8v2.294q0,2.817-.983,3.821t-3.746,1h-11.9q-2.78,0-3.783-1.013t-1-3.811v-.557l3.167-.734v3.28h15.183v-6.136H634.116c-1.854,0-3.106-.336-3.764-1.013s-.984-1.945-.984-3.808v-1.775q0-2.8.984-3.808c.658-.677,1.91-1.016,3.764-1.016h10.862q2.72,0,3.755.994a4.748,4.748,0,0,1,1.031,3.482v.424l-2.913.829Z"/><rect x="150" y="447.529" width="499.998" height="4.606"/></svg>