<svg xmlns="http://www.w3.org/2000/svg" xml:space="preserve" id="Layer_1" x="0" y="0" style="enable-background:new 0 0 800 600" version="1.1" viewBox="0 0 800 600"><style>.st0{fill:#36404f}.st1{fill:#005fc5}</style><path d="M401.1 200.1c-5.9 0-11.7.7-17.5 2v104.2c9.9 6.3 22.4 6.8 32.7 1.3v-106c-5-1-10.1-1.5-15.2-1.5M456.4 170.8h-47.5v-52.2c5.6-5.1 6-13.7.9-19.2-2.5-2.8-6.1-4.4-9.9-4.5-7.5.1-13.5 6.3-13.4 13.9.1 3.8 1.7 7.3 4.5 9.9v52.2h-47.5l22.6 14.3h17.5v6.4c5.7-1.2 11.6-1.8 17.5-1.8 5.1 0 10.2.5 15.2 1.3v-5.9h17.5l22.6-14.4z" class="st0"/><path d="M440.4 259.7h35.2c-6-25.6-24.5-46.3-49.2-55.3v37.9c6.1 4.5 10.9 10.5 14 17.4M426.4 313.3v.5l-4 2.1-1.4.8c-.2.1-.4.2-.5.2-.9.5-1.8.9-2.7 1.3-.3.1-.5.2-.8.3-1 .4-1.9.8-2.9 1.1l-.9.3c-.9.3-1.9.6-2.9.8-1.3.3-2.6.5-3.8.7-.2 0-.4 0-.6.1-1.6.2-3.2.3-4.8.3-1.3 0-2.6-.1-3.8-.2-.4 0-.8-.1-1.3-.1-.9-.1-1.7-.2-2.6-.4-.8-.1-1.5-.3-2.3-.5-.7-.2-1.4-.3-2.1-.5-.7-.2-1.5-.5-2.2-.7-.3-.1-.6-.2-.9-.4-1.4-.6-2.8-1.2-4.2-1.9-.8-.4-1.5-.8-2.3-1.3-.4-.2-.8-.4-1.2-.7l-1.5-1-3.2-2.1v-.4c-18.7-15.8-21-43.8-5.1-62.4 1.6-1.9 3.3-3.6 5.1-5.1v-38.8c-29.7 11.8-49.2 40.6-49 72.6 0 43 34.3 77.8 76.7 77.8 36.2 0 66.5-25.4 74.5-59.6h-35.2c-3.2 6.8-8 12.7-14.1 17.2" class="st1"/><path d="M385.8 318.9c-1.4-.6-2.8-1.2-4.2-1.9 1.4.7 2.8 1.3 4.2 1.9M378.2 315.1c.4.2.8.4 1.2.7-.9-.5-1.9-1-2.7-1.6l1.5.9zM420.9 316.8l1.4-.8c-.6.4-1.3.7-1.9 1 .2-.1.4-.1.5-.2M417.7 318.3c-.3.1-.5.2-.8.3.3-.1.5-.2.8-.3M414 319.7l-.9.3c.3-.2.6-.2.9-.3M410.2 320.7c-1.3.3-2.5.5-3.8.7 1.3-.2 2.6-.4 3.8-.7M426.4 313.9v-.5c-1.3 1-2.6 1.9-4 2.7l4-2.2zM373.4 312l3.2 2.1c-1.1-.8-2.2-1.6-3.2-2.5v.4z"/><path d="M271.3 455.5c0 6.2-1.7 11.3-5.1 15.1-3 3.5-6.5 5.3-10.4 5.3-3.9 0-7.4-1.6-10.5-4.9-3.5-3.7-5.3-8.7-5.3-15.1v-65.5c0-6.5 1.5-11.7 4.6-15.7 3.1-3.9 6.8-5.9 11.2-5.9 4.2 0 7.8 1.9 10.8 5.7 3.1 4 4.7 9.1 4.7 15.3v15.4h-10.1V391c.1-2.1-.4-4.3-1.4-6.2-.7-1.6-2.2-2.6-3.9-2.6-1.4 0-2.6.8-3.9 2.4-1.2 1.5-1.8 3.3-1.8 5.1V455c-.1 2 .6 4 1.9 5.5.9 1.2 2.3 1.9 3.8 2 1.5 0 2.9-.8 3.7-2.1 1.1-1.7 1.7-3.7 1.6-5.7v-16.3h10.1v17.1zM302.7 400c0-11.1-2-16.6-6-16.6h-6.5v32.2h7.3c3.4.1 5.2-5.1 5.2-15.6m12.8 74.1h-10.7l-8.9-44.7h-5.8v44.7H280V370h18.7c9.4 0 14.1 10 14.1 30.1.1 4.9-.1 9.9-.8 14.7-1 5.3-3.2 8.9-6.5 10.9l10 48.4zM355.2 455c0 6.1-1.6 11.2-4.7 15.1-3.1 3.9-6.9 5.9-11.3 5.9-4.6 0-8.4-2-11.5-5.9-3.1-3.9-4.6-9.4-4.6-16.3V370h10.1v82.6c0 2.2.5 4.5 1.5 6.5 1.1 2.3 2.6 3.4 4.4 3.4 1.4 0 2.8-.9 4-2.7 1.2-1.6 1.8-3.6 1.8-5.6V370H355l.2 85zM395.7 449.5c0 8.1-1.3 14.4-3.9 19-2.9 5-7 7.5-12.5 7.5-4.2 0-7.9-1.9-11-5.8-3.4-4.1-5.1-9.4-5.1-15.9v-13h10.1c.1 4.1.2 8.2.3 12.4.7 6 2.6 9 5.8 8.9 4.1 0 6.1-4.1 6.1-12.4 0-5.8-1.9-11.7-5.7-17.6-3.5-5.3-7-10.5-10.6-15.8-3.8-6.7-5.7-14.2-5.7-21.8 0-7.5 1.2-13.5 3.5-18 2.9-5.4 7-8 12.3-8 4.8 0 8.7 2.3 11.5 6.8 2.6 4.2 3.9 9.5 3.9 15.8V402h-10c-.1-3.9-.1-7.7-.1-11.5-.3-5.4-2.1-8.2-5.3-8.2-3.8 0-5.7 4.1-5.7 12.4 0 5 1.9 10.3 5.8 15.9 3.4 5.3 6.9 10.5 10.4 15.7 4 7 6 15 5.9 23.2M424.6 436.6l-4.8-45.4-4.9 45.4h9.7zm14.6 37.5h-9.9c-.5-5.3-1.6-13.1-3.1-23.4h-12.8c-.8 5.1-1.7 12.9-2.7 23.4H401L413 370h13.4l12.8 104.1zM468.8 449.7v-56.1c-.1-2-.6-3.9-1.5-5.6-1.1-2.7-2.4-4.1-3.7-4.1H457v76.6h4.6c2 .1 3.7-.9 5.1-3.1 1.4-2.3 2.1-4.9 2.1-7.7m10.1 2.4c.2 5.6-1.5 11.1-4.7 15.7-3.2 4.3-6.9 6.4-11.4 6.5h-16V370h16.7c4-.1 7.5 2.2 10.6 6.7 3.1 4.5 4.7 9.8 4.7 15.3l.1 60.1zM516.8 474.1h-28.2V370h27.8v13.3h-17.7v30.1h14.9v13.7h-14.9v33.3h18.1zM547.1 400c0-11.1-2-16.6-6-16.6h-6.6v32.2h7.3c3.6.1 5.3-5.1 5.3-15.6m12.9 74.1h-10.7l-8.9-44.7h-5.8v44.7h-10.1V370h18.7c9.4 0 14.1 10 14.1 30.1.1 4.9-.1 9.9-.8 14.7-1 5.3-3.2 8.9-6.5 10.9l10 48.4z" class="st1"/><path d="M240 486h2.4v18H240zM267 486h3.2l9.8 14.8V486h2.4v18h-3l-9.9-14.8h-.1V504H267zM309 501.7h3c1 0 2-.1 2.9-.4.9-.3 1.7-.7 2.4-1.3.7-.6 1.2-1.3 1.6-2.1.4-.9.6-1.9.6-2.9 0-.7-.1-1.4-.3-2-.2-.8-.6-1.5-1-2.2-.6-.7-1.3-1.3-2.1-1.8-1.1-.5-2.3-.8-3.5-.7H309v13.4zm-2.4-15.7h6.2c1.1 0 2.2.1 3.3.4.9.3 1.7.6 2.5 1.2.7.5 1.2 1 1.7 1.7.4.6.8 1.2 1.1 1.9.3.6.5 1.3.6 2 .1.6.2 1.2.2 1.8 0 1.1-.2 2.3-.6 3.4-.4 1.1-1 2.1-1.9 2.9-.9.9-1.9 1.6-3 2-1.3.5-2.8.8-4.2.8h-5.8l-.1-18.1zM347.8 486v11c0 .6.1 1.2.2 1.7.1.6.4 1.2.8 1.7s.8.9 1.4 1.3c1.3.6 2.9.6 4.2 0 .5-.3 1-.7 1.4-1.3.3-.5.6-1.1.8-1.7.1-.6.2-1.2.2-1.7v-11h2.4v11.4c0 1-.2 2-.5 2.9-.3.8-.8 1.6-1.5 2.2-.6.6-1.4 1.1-2.2 1.5-1.7.7-3.7.7-5.4 0-.8-.3-1.6-.8-2.2-1.5-.6-.6-1.1-1.4-1.5-2.2-.4-.9-.5-1.9-.5-2.9V486h2.4zM383.9 500.2c.4.6 1 1.1 1.7 1.5.7.3 1.4.5 2.1.5.4 0 .8-.1 1.2-.2.4-.1.8-.3 1.1-.6.3-.3.6-.6.8-.9.2-.4.3-.8.3-1.3 0-.6-.2-1.2-.7-1.6-.5-.4-1-.7-1.6-.9-.6-.2-1.3-.5-2.1-.7-.7-.2-1.5-.5-2.1-1-1.5-.9-2.4-2.6-2.3-4.4 0-.6.1-1.1.3-1.7.2-.6.6-1.2 1.1-1.6.5-.5 1.2-.9 1.9-1.2.9-.4 1.8-.5 2.7-.5.9 0 1.9.1 2.8.4.9.3 1.7.9 2.3 1.7l-2 1.8c-.3-.5-.8-.9-1.3-1.1-.6-.3-1.2-.4-1.9-.4-.6 0-1.1.1-1.7.3-.4.2-.8.4-1.1.7-.3.3-.4.6-.6.9-.1.3-.2.6-.2.9 0 .7.2 1.3.7 1.8.5.4 1 .8 1.6 1 .7.3 1.4.5 2.1.7.7.2 1.4.5 2.1.9.6.4 1.2.9 1.6 1.5.5.8.7 1.7.7 2.6 0 .8-.2 1.6-.5 2.3-.3.7-.8 1.3-1.3 1.8-.6.5-1.2.9-2 1.1-.8.3-1.6.4-2.4.4-1.1 0-2.2-.2-3.2-.6-1-.4-1.8-1-2.4-1.9l2.3-2.2zM421.1 488.2h-5.7V486h13.8v2.2h-5.7V504h-2.4zM454.2 493.9h3.2c.5 0 .9 0 1.4-.1.4-.1.8-.2 1.2-.4.4-.2.7-.5.9-.9.4-.9.4-2 0-3-.2-.4-.5-.7-.9-.9-.4-.2-.8-.4-1.2-.4-.5-.1-.9-.1-1.4-.1h-3.2v5.8zm-2.4-7.9h6.2c1 0 1.9.1 2.8.5.7.3 1.3.7 1.7 1.2.4.5.7 1 .9 1.6.2.6.2 1.2.3 1.7 0 .6-.1 1.1-.3 1.7-.2.5-.5 1-.9 1.5-.4.4-.9.8-1.4 1.1-.6.3-1.2.5-1.8.5l5 8.2h-3l-4.5-8h-2.7v8h-2.4v-18zM487.2 486h2.4v18h-2.4zM514.2 486h11.5v2.2h-9.1v5.4h8.5v2.3h-8.5v5.8h9.5v2.3h-11.9zM550.1 500.2c.4.6 1 1.1 1.7 1.5.7.3 1.4.5 2.1.5.4 0 .8-.1 1.2-.2.4-.1.8-.3 1.1-.6.3-.3.6-.6.8-.9.2-.4.3-.8.3-1.3 0-.6-.2-1.2-.7-1.6-.5-.4-1-.7-1.6-.9-.6-.2-1.3-.5-2.1-.7-.7-.2-1.5-.5-2.1-1-.7-.4-1.2-1-1.6-1.6-.5-.9-.7-1.8-.6-2.8 0-.6.1-1.1.3-1.7.2-.6.6-1.2 1.1-1.6.5-.5 1.2-.9 1.9-1.2.9-.4 1.8-.5 2.7-.5.9 0 1.9.1 2.8.4.9.3 1.7.9 2.3 1.7l-2 1.8c-.3-.5-.8-.9-1.3-1.1-.6-.3-1.2-.4-1.9-.4-.6 0-1.1.1-1.7.3-.4.2-.8.4-1.1.7-.3.3-.4.6-.6.9-.1.3-.2.6-.2.9 0 .7.2 1.3.7 1.8.5.4 1 .8 1.6 1 .7.3 1.4.5 2.1.7.7.2 1.4.5 2.1.9.6.4 1.2.9 1.6 1.5.5.8.7 1.7.7 2.6 0 .8-.2 1.6-.5 2.3-.3.7-.8 1.3-1.3 1.8-.6.5-1.2.9-2 1.1-.8.3-1.6.4-2.4.4-1.1 0-2.2-.2-3.2-.6-1-.4-1.8-1-2.4-1.9l2.2-2.2z" class="st0"/></svg>