<svg xmlns="http://www.w3.org/2000/svg" xml:space="preserve" id="Layer_1" x="0" y="0" style="enable-background:new 0 0 800 600" version="1.1" viewBox="0 0 800 600"><style>.st0{fill:#1a1a1a}.st1{fill:#5e2368}</style><path d="m447.5 159.6 10.8-18.8H341.7l10.8 18.8H389v63.3l11 18.9 10.9-18.9v-63.3zM365.5 241.8h21.9l-58.3-101-58.2 101h21.8l36.4-63.1zM316.6 140.8H200l58.3 101 21.9-37.9 14.5-25.2h-29l3.5 6.2-10.9 19-25.5-44.1h72.9zM507.2 241.8h21.9l-58.3-101-58.3 101h21.9l36.4-63.1zM589.1 159.8l10.9-18.9-116.6-.1 58.3 101 11-18.9-36.5-63.1z" class="st0"/><path d="m387.1 290.9 5.3 1.4c1.8.5 3 2.1 3 3.9v157.5c0 1.8-1.2 3.4-3 3.9l-5.3 1.4c-1.8.5-3.6-.3-4.5-1.9l-45-78.2c-.4-.6-.5-1.3-.5-2V373c0-.7.2-1.4.5-2l45-78.2c.9-1.6 2.7-2.3 4.5-1.9M413.5 290.9l-5.3 1.4c-1.8.5-3 2.1-3 3.9v157.5c0 1.8 1.2 3.4 3 3.9l5.3 1.4c1.8.5 3.6-.3 4.5-1.9l45-78.2c.4-.6.5-1.3.5-2V373c0-.7-.2-1.4-.5-2l-45-78.2c-.9-1.6-2.7-2.3-4.5-1.9M269.8 257l2.9-5c.7-1.2 2-2 3.5-2h106.5c1.4 0 2.8.8 3.5 2l2.9 5c.7 1.2.7 2.8 0 4l-53.2 92.2c-.7 1.2-2 2-3.5 2h-5.8c-1.4 0-2.8-.8-3.5-2L269.8 261c-.7-1.2-.7-2.8 0-4M411.8 257l2.9-5c.7-1.2 2-2 3.5-2h106.5c1.4 0 2.8.8 3.5 2l2.9 5c.7 1.2.7 2.8 0 4l-53.2 92.2c-.7 1.2-2 2-3.5 2h-5.8c-1.4 0-2.8-.8-3.5-2L411.8 261c-.7-1.2-.7-2.8 0-4" class="st1"/></svg>