<svg xmlns="http://www.w3.org/2000/svg" viewBox="0 0 500 257"><defs><style>.a{fill:#757575;}</style></defs><title>TMBL</title><path class="a" d="M48.86,113.47H88.23v9.17H73.71v27.65H63.38V122.64H48.86Zm44.39,4.07,10.21,0-15-29.16-.22.12v-.12H48.87v.08l-15,29.08,10.21,0,10.1-20H83.13Zm0,22,10.21,0-15,29.11-.22-.12v.12H48.87v-.08l-15-29,10.21,0,10.1,19.95H83.13Zm20.36-26H124v21.26a7.68,7.68,0,0,0,1.3,5,5.62,5.62,0,0,0,4.48,1.51H140a5.62,5.62,0,0,0,4.48-1.51,7.74,7.74,0,0,0,1.31-5V113.47h10.33v23.7a13.89,13.89,0,0,1-3.33,10.23,14.44,14.44,0,0,1-10.49,3.3H127.4a14.43,14.43,0,0,1-10.49-3.3,13.89,13.89,0,0,1-3.33-10.23v-23.7Zm66.71,0h15.89l11.68,23.7,11.68-23.7h15.88v36.82h-10.1V123.86h-.09l-13.54,26.43H204l-13.55-26.43h-.09v26.43H180.29V113.47Zm80.71,0h29.73a26.18,26.18,0,0,1,5.37.49,9.44,9.44,0,0,1,3.84,1.63,6.88,6.88,0,0,1,2.28,3,12.24,12.24,0,0,1,.75,4.56,16.24,16.24,0,0,1-.38,3.87,6.9,6.9,0,0,1-1,2.41,4.87,4.87,0,0,1-1.58,1.38,21.18,21.18,0,0,1-2,.82v.12a6.54,6.54,0,0,1,4.79,2.56,11.21,11.21,0,0,1,1.4,6.23,13.34,13.34,0,0,1-.77,5,6.86,6.86,0,0,1-2.14,3,7.42,7.42,0,0,1-3.26,1.46,21.12,21.12,0,0,1-4.12.37H261V113.47Zm10.33,14.58h18.29a3.53,3.53,0,0,0,2.23-.61,3.47,3.47,0,0,0,0-4.48,3.3,3.3,0,0,0-2.23-.65H271.36Zm0,13.4h18.52a5.7,5.7,0,0,0,2.7-.53,2.22,2.22,0,0,0,1-2.16,2.62,2.62,0,0,0-1-2.48,5.62,5.62,0,0,0-2.7-.57H271.36Zm57.71-28h31.18a13.14,13.14,0,0,1,4.93.78,7.16,7.16,0,0,1,3.1,2.24,8.36,8.36,0,0,1,1.61,3.42,19.81,19.81,0,0,1,.46,4.48v2.36a21.45,21.45,0,0,1-.23,3.3,7.74,7.74,0,0,1-.86,2.6,5.92,5.92,0,0,1-1.77,1.92,8.58,8.58,0,0,1-2.91,1.22v.12a13,13,0,0,1,2.19.69,4.75,4.75,0,0,1,1.79,1.35,6.56,6.56,0,0,1,1.22,2.36,13.15,13.15,0,0,1,.45,3.75v6.23H359.89v-4.4a6.6,6.6,0,0,0-.9-4,4.15,4.15,0,0,0-3.33-1.14H339.41v9.57H329.08V113.47ZM339.4,131.6h17.08a3.83,3.83,0,0,0,3-1,4.18,4.18,0,0,0,.86-2.89V126.5a3.54,3.54,0,0,0-1.14-3.17,7.38,7.38,0,0,0-3.61-.69H339.4Zm55.77-18.13H405.5v36.82H395.17Zm37.38,0h10.33v27.37h23.21v9.45H432.54V113.47Z"/></svg>