<svg xmlns="http://www.w3.org/2000/svg" xml:space="preserve" id="Layer_1" x="0" y="0" version="1.1" viewBox="0 0 800 600"><style>.st1{fill:#333}</style><path fill="#8eb82c" d="m399.7 100-66.3 197.5 66.3 97.5 66.3-97.5L399.7 100zm-49.9 197.5c.7-27 22.8-48.8 50-48.8s49.3 21.7 50 48.8h-100z"/><path d="M287.5 418.7c-29.7 0-53.8 24.1-53.8 53.8h12.5c0-20.7 15.2-37.8 35-40.8V460h-20l-7.5 12.5h40v-53.4c-2-.2-4.1-.4-6.2-.4zM309.2 453.7c0-13.3 11.5-23.9 25.1-22.4 10.6 1.2 19 9.9 19.9 20.5.7 8.6-3.5 16.3-10 20.6h17.1c4-6.4 6.1-14.1 5.3-22.4-1.6-16.2-14.6-29.4-30.9-31.2-21.1-2.3-39 14.2-39 34.8 0 6.9 2 13.3 5.5 18.8h17.1c-6.1-3.9-10.1-10.8-10.1-18.7zM445.3 453.7c0-13.3 11.5-23.9 25.1-22.4 10.6 1.2 19 9.9 19.9 20.5.7 8.6-3.5 16.3-10 20.6h17.1c4-6.4 6.1-14.1 5.3-22.4-1.6-16.2-14.6-29.4-30.9-31.2-21.1-2.3-39 14.2-39 34.8 0 6.9 2 13.3 5.5 18.8h17.1c-6.1-3.9-10.1-10.8-10.1-18.7zM376.2 418.7c-2.1 0-4.2.1-6.2.4v69l12.5 11.9v-68.3c15.6 2.4 28.4 13.5 33.1 28.3h-21.8l-7.5 12.5H430c0-29.7-24.1-53.8-53.8-53.8zM518.8 472.5v-40.8c15.6 2.4 28.4 13.5 33.1 28.3H530l-7.5 12.5h43.8c0-29.7-24.1-53.8-53.8-53.8-2.1 0-4.2.1-6.2.4v53.4h12.5z" class="st1"/></svg>