<svg xmlns="http://www.w3.org/2000/svg" width="300" height="300" style="width:100%;height:100%;transform:translate3d(0,0,0)"><defs><clipPath id="a"><path d="M0 0h640v300H0z"/></clipPath><clipPath id="c"><path fill="#fff" d="M170.867-7.589H-7.271v63.121h178.138V-7.589"/></clipPath><clipPath id="b"><path fill="#fff" d="M356.716-11.282H-56.86v74.318h413.576v-74.318"/></clipPath><mask id="f" mask-type="alpha"><path fill="red" d="M0-84.176c46.457 0 84.176 37.72 84.176 84.176 0 46.457-37.72 84.176-84.176 84.176-46.457 0-84.176-37.72-84.176-84.176 0-46.457 37.72-84.176 84.176-84.176z" transform="matrix(.96558 0 0 .96558 142.896 145.451)" style="display:block"/></mask><mask id="e" mask-type="alpha"><path fill="#677CAB" d="M-26.763-31.195c0 1.764 11.39 70.916 11.39 70.916s25.627-25.22 25.627-24c0 .524 5.258 24.412 11.255 51.483C40.862 53.935 53.565 31.673 53.565 6.435c0-40.67-32.97-73.639-73.64-73.639a73.296 73.296 0 0 0-33.49 8.063 7814.676 7814.676 0 0 0 9.31 42.321s17.492-16.138 17.492-14.375z" transform="translate(162.873 138.583)" style="display:block"/></mask><mask id="d" mask-type="alpha"><path fill="#F6921E" d="M-57.612-4.031c0 40.67 32.97 73.639 73.64 73.639 15.432 0 29.749-4.755 41.584-12.869C51.615 29.667 46.356 5.78 46.356 5.256c0-1.221-25.627 24-25.627 24S9.339-39.897 9.339-41.66c0-1.764-17.492 14.373-17.492 14.373s-4.402-19.701-9.31-42.321C-41.291-57.414-57.612-32.636-57.612-4.031z" transform="translate(126.771 149.049)" style="display:block"/></mask></defs><g clip-path="url(#a)"><g mask="url(#d)" style="display:block"><path fill="#F6921E" d="M215.443 145.021c0 40.12-32.52 72.64-72.64 72.64s-72.65-32.52-72.65-72.64 32.53-72.65 72.65-72.65c40.12 0 72.64 32.53 72.64 72.65z"/></g><g mask="url(#e)" style="display:block"><path fill="#677DAB" d="M215.443 145.021c0 40.12-32.52 72.64-72.64 72.64s-72.65-32.52-72.65-72.64 32.53-72.65 72.65-72.65c40.12 0 72.64 32.53 72.64 72.65z"/></g><path stroke-miterlimit="10" stroke="#666" stroke-width="15.365" d="M-80.078-8.435c4.216-40.503 38.459-72.08 80.077-72.08 44.467 0 80.516 36.048 80.516 80.515S44.466 80.515-.001 80.515c-44.467 0-80.514-36.048-80.514-80.515 0-2.849.148-5.663.437-8.435" fill="none" transform="matrix(.90225 0 0 .90225 142.8 145.018)" style="display:block"/><g mask="url(#f)" style="display:block"><path fill="#FFF" d="m178.669 136.168-25.848 26.586-8.592-73.855-22.893 22.894-25.11-90.098 16.247 121.853 18.473-19 7.13 70.702 31.731-27.327 25.109 90.098-16.247-121.853z"/></g><path stroke-miterlimit="10" stroke="#FFF" stroke-width="4.365" d="M-80.078-8.435c4.216-40.503 38.459-72.08 80.077-72.08 44.467 0 80.516 36.048 80.516 80.515S44.466 80.515-.001 80.515c-44.467 0-80.514-36.048-80.514-80.515 0-2.849.148-5.663.437-8.435" fill="none" transform="translate(142.8 145.018)" style="display:block"/><g style="display:block"><path fill="#161616" d="M157.143 144.395c-.253 0-.459-.08-.582-.128a1.134 1.134 0 0 1-.461-.26l-2.263-2.262a.968.968 0 0 1-.163-.219c-.404-.754-.155-1.441-.006-1.852.027-.073.054-.146.075-.219.23-.78.676-1.405 1.069-1.955.141-.198.282-.396.412-.601.231-.365.477-.722.734-1.069a.938.938 0 0 1 .866-1.242c2.198-3.179 4.649-6.211 7.074-9.154a.945.945 0 0 1-.165-.29 1.071 1.071 0 0 1 .042-.833c.049-.096.102-.19.158-.281a63.853 63.853 0 0 1-.577-2.197c-.153-.623-.301-1.248-.449-1.872-.139-.589-.279-1.177-.423-1.765-.218-.89-.06-1.698.47-2.399.341-.452.669-.913.997-1.375.504-.71 1.025-1.443 1.594-2.139.65-.795 1.357-1.545 2.041-2.27l.34-.361-1.317-1.079a.936.936 0 0 1-.068-1.389l.222-.224c.255-.257.503-.506.761-.744.173-.16.448-.262.684-.262.208 0 .393.06.547.118l.877.336a.641.641 0 0 0-.041-.221l-.499-1.344c-.954-2.573-1.94-5.232-3.025-7.796a629.66 629.66 0 0 0-8.544-19.256c-.159-.342-.455-.682-.768-1.042l-.114-.132c-.448-.518-.496-1.166-.129-1.733.217-.336.456-.657.696-.977l1.007-1.344c.543-.723 1.086-1.446 1.624-2.173.264-.356.587-.537.96-.537.324 0 .623.142.889.424.291.308.594.607.898.908.321.036.682.226.848.603.053.121.081.308.081.466.445.496.895.989 1.346 1.481.049-.006.089-.007.116-.009a.901.901 0 0 1 1.026.807.962.962 0 0 1 .009.484s2.659 2.966 3.331 3.709c.506.56 1.014 1.119 1.523 1.677.878.963 1.756 1.926 2.621 2.902a184.05 184.05 0 0 1 2.278 2.629l.028-.569a.9.9 0 0 1-.094-.1 1.063 1.063 0 0 1-.217-.734 1.33 1.33 0 0 1 .394-.81c.012-.41.029-.785.047-1.158a.939.939 0 0 1-.47-.781c-.008-.126-.019-.285.021-.471.085-.392.362-.596.466-.673.096-.071.116-.1.11-.237a1.574 1.574 0 0 1 .581-1.251 61.407 61.407 0 0 1 2.337-1.71c.389-.27.758-.402 1.128-.402.3 0 .59.09.84.261.401.274.719.668.873 1.079a137.485 137.485 0 0 1 1.502 4.24c.378 1.124.748 2.253 1.118 3.381.38 1.158.759 2.315 1.148 3.47a4.7 4.7 0 0 1 .221.949 2.57 2.57 0 0 0 .646-.472c1.15-1.211 2.266-2.48 3.222-3.574.874-.999 1.733-2.01 2.592-3.021l4.018-4.719 7.288-8.538c.784-.922 1.568-1.843 2.365-2.753.02-.022.035-.041.047-.056-.224-.601-.381-1.183-.534-1.746l-.03-.114c-.116-.416-.009-1.016.418-1.348.31-.241.628-.473.946-.704.217-.157.434-.315.648-.476.239-.179.493-.27.755-.27.334 0 .637.142.899.421.087.093.175.185.265.276.056-.065.113-.129.17-.192.264-.299.569-.645 1.063-.645.115 0 .242.024.35.065.342.132.831.356 1.153.782.381.503.493 1.161.316 1.854a145.363 145.363 0 0 0-.727 3.015l-.101.428a.94.94 0 0 1 .071.944 1.451 1.451 0 0 1-.262.452.572.572 0 0 0-.162.318 1.907 1.907 0 0 1-.352.821c-.255.348-.514.695-.773 1.04.471.144.692.328 1.069.857l.241.332c1.194 1.596 2.637 3.228 4.54 5.139l.873.878c1.351 1.36 2.747 2.767 4.168 4.085.794.737 1.664 1.443 2.504 2.126.497.404.995.808 1.483 1.223.261.221.479.531.652.924l.252-.19c.291-.219.582-.438.876-.652a1.61 1.61 0 0 1 .752-.298c.079-.01.18-.038.353-.187.214-.184.442-.239.551-.265a1.017 1.017 0 0 1 .748.104l.029-.007c.479-.105.963-.212 1.445-.324.467-.109.934-.223 1.4-.337l.756-.185c.179-.043.359-.065.535-.065.83 0 1.53.479 1.874 1.281l.118.233a.938.938 0 0 1-.224 1.128l-.57.494c.064.061.129.12.196.178.587.509.653 1.216.17 1.844a48.31 48.31 0 0 0-1.044 1.418c-.329.465-.742.563-1.031.563-.14 0-.28-.023-.426-.07-.332-.104-.666-.204-.999-.305a77.686 77.686 0 0 1-.821-.25c-.601.516-17.792 15.195-17.792 15.195l-1.106.94c-.889.754-1.779 1.509-2.653 2.281-.599.529-1.096.968-1.399 1.501-.048.083-.095.168-.141.253.161.017.338.048.514.105 3.166 1.033 6.329 2.073 9.488 3.123.791.262 1.477.522 2.099.793.625.274 1.018.668 1.17 1.172.151.501.043 1.041-.321 1.606-.456.708-.965 1.375-1.458 2.02l-.26.342c-.221.29-.657.584-1.135.584l-.144-.006c-.063 0-.141 0-.307.21-.312.395-.666.478-.907.478-.368 0-.701-.189-.912-.519-.008-.011-.015-.024-.022-.036a54.11 54.11 0 0 1-1.138.048 2.05 2.05 0 0 1-.119.1c-.089.069-.416.3-.81.3-.212 0-.448-.08-.613-.211a1.163 1.163 0 0 1-.114-.105l-.511.024.379.344c.266.243.532.486.805.719 1.015.865 2.005 1.759 2.994 2.653l.378.341c.813.735 1.624 1.475 2.435 2.214l1.959 1.785c.36.327.725.651 1.089.974.287.255.574.51.859.766l.087-.013a.973.973 0 0 1 .143-.011c.31 0 .632.141.808.392.154.22.232.487.188.739.513.466 1.026.931 1.541 1.394a.938.938 0 0 1 1.019.878c.3.301.602.603.906.903.181.178.484.476.45.966-.034.491-.373.744-.576.895l-4.084 3.062a4.475 4.475 0 0 1-.325.227c-.231.143-.514.289-.861.289-.556 0-.903-.366-1.033-.503-.529-.556-1.262-.881-2.038-1.225-.179-.08-.358-.16-.536-.243-6.225-2.893-12.859-5.803-20.279-8.896-1.262-.526-2.582-1.003-3.857-1.464-.863-.312-1.725-.624-2.58-.954a1.216 1.216 0 0 0-.446-.085c.11.268.232.533.356.796.256.54.146 1.106-.296 1.513-.178.164-.348.338-.528.521l-.257.259a.937.937 0 0 1-.664.275l-.046-.001a.932.932 0 0 1-.679-.343l-1.086-1.326c-.156.141-.31.283-.461.428-1.177 1.122-2.464 2.297-3.901 3.29l-.807.564c-.449.317-.899.633-1.357.939a2.05 2.05 0 0 1-1.159.338c-.304 0-.584-.056-.793-.105-.847-.197-3.364-.798-3.364-.798l-2.166-.517a1.176 1.176 0 0 1-.21-.07c-.178-.088-.24-.092-.243-.092-.101.147-.252.215-.334.252a1.02 1.02 0 0 1-.411.086.963.963 0 0 1-.64-.234c-2.921 2.407-5.931 4.839-9.089 7.021a.933.933 0 0 1-.217.575.994.994 0 0 1-.76.353c-.1 0-.2-.016-.296-.048-.378.256-1.999 1.366-2.437 1.661-.689.465-1.451.665-2.171.812a1.533 1.533 0 0 1-.234.023zm50.86-43.423c.623-.467 2.326-1.752 2.326-1.752.604-.452 1.175-.878 1.68-1.362a243.545 243.545 0 0 0 4.385-4.35l.5-.505c.34-.343.652-.714.927-1.102.17-.238.245-.453.24-.679-.008-.305-.151-.611-.305-.896a10.507 10.507 0 0 0-1.67-2.271 320.794 320.794 0 0 0-4.689-4.771 37.776 37.776 0 0 0-2.108-1.943c-.805-.689-1.509-1.206-2.331-1.491a1.087 1.087 0 0 0-.353-.065.896.896 0 0 0-.329.065c-.439.172-.811.486-1.269.936-1.291 1.272-2.568 2.559-3.845 3.845l-1.103 1.111c-.21.209-.409.406-.56.606a881.69 881.69 0 0 0-2.621 3.489l.016.007 2.358-1.12a1.3 1.3 0 0 1 .042-.397c.039-.149.101-.28.172-.394a1.022 1.022 0 0 1 .027-.791l.082-.181c.204-.457.436-.975.875-1.379a43.804 43.804 0 0 1 1.974-1.678c.357-.292.714-.584 1.066-.882.545-.462 1.083-.933 1.621-1.405l.826-.721c.275-.238.574-.36.89-.36.251 0 .621.079.96.453.206.229.422.449.652.652.512.453.594 1.119.211 1.696a2.481 2.481 0 0 1-.27.327c-.207.234-.354.395-.501.556-.301.331-.586.643-.812.971a99.656 99.656 0 0 0-1.573 2.377c1.375-.914 2.793-1.86 4.043-2.944.292-.254.609-.382.94-.382.37 0 .716.159 1.03.474l1.638 1.637c.563.565.603 1.302.104 1.922-.141.176-.289.349-.436.523-.251.296-.503.59-.723.908l-.665.959c-.383.552-.772 1.111-1.159 1.681l1.608-1.045c.603-.384 1.172-.747 1.628-1.212.253-.258.522-.5.797-.734.222-.188.53-.404.951-.404.38 0 .722.175 1.018.52.112.132.238.252.363.372l.21.205c.612.613.632 1.237.061 1.909-1.324 1.557-4.077 4.807-4.077 4.807-.445.532-.949 1.134-1.793 1.462l-.113.045c-.194.078-.394.158-.65.158-.139 0-.263-.023-.374-.06a1.553 1.553 0 0 1-.779.229l-1.119 2.361.006.013z"/><path fill="#FFF" d="M210.576 63.425a.03.03 0 0 1 .013.003c.271.104.573.249.74.471.222.292.258.66.157 1.056-.356 1.392-.672 2.792-1.004 4.193l.313.015c-.039.081-.062.175-.119.239-.208.232-.343.49-.39.804a.955.955 0 0 1-.182.406c-.471.645-.954 1.281-1.432 1.921-.028.037-.046.081-.095.17.158.076.299.175.455.211 1.231.29.93.126 1.616 1.043 1.401 1.872 2.98 3.586 4.626 5.239 1.674 1.679 3.331 3.378 5.068 4.989 1.281 1.188 2.684 2.244 4.018 3.376.182.154.316.391.412.615.145.341.084.76.408 1.083.265-.194.53-.386.793-.582.441-.33.879-.666 1.325-.99a.684.684 0 0 1 .311-.126c.335-.038.606-.192.856-.408.059-.051.156-.057.236-.084l-.015.276c.709-.158 1.432-.313 2.151-.48.723-.168 1.443-.35 2.164-.524.108-.026.213-.039.314-.039.45 0 .815.253 1.012.713.037.086.085.168.142.283l-1.326 1.149c.32.32.618.651.952.94.229.198.205.351.041.564a50.32 50.32 0 0 0-1.066 1.447c-.08.113-.159.167-.266.167a.472.472 0 0 1-.142-.026c-.689-.217-1.384-.416-2.073-.634a.408.408 0 0 0-.438.087c-1.003.862-2.012 1.717-3.017 2.576-1.006.859-2.01 1.72-3.015 2.579l-4.233 3.615-3.474 2.963-4.254 3.634c-1.259 1.075-2.531 2.136-3.771 3.232-.589.521-1.197 1.042-1.594 1.739-.31.544-.581 1.109-.899 1.722.397-.034.734-.08 1.072-.085l.09-.001a2.1 2.1 0 0 1 .635.079c3.164 1.033 6.325 2.072 9.483 3.121.683.227 1.361.475 2.019.763.726.317.854.761.437 1.409-.514.798-1.103 1.547-1.677 2.303-.083.108-.258.214-.388.214l-.02-.001a1.76 1.76 0 0 0-.124-.005c-.448 0-.77.22-1.044.567-.049.062-.108.121-.171.121-.04 0-.081-.023-.122-.087a.272.272 0 0 1-.006-.233c.047-.088.14-.151.249-.259-.1-.006-.165-.016-.227-.016h-.023c-.713.031-1.426.076-2.14.093-.24.005-.342.172-.495.291a.52.52 0 0 1-.237.104.053.053 0 0 1-.03-.008c-.071-.058-.085-.188-.141-.336l-3.69.178c1.242.705 2.17 1.71 3.2 2.588 1.137.97 2.242 1.976 3.35 2.977 1.47 1.328 2.927 2.668 4.393 3.998.733.664 1.479 1.313 2.211 1.977.078.071.144.111.217.111.053 0 .11-.022.176-.069.077-.055.194-.052.293-.076-.05.094-.099.189-.153.281-.019.031-.052.054-.11.111.079.079.153.159.233.232.676.615 1.352 1.23 2.033 1.839a.466.466 0 0 0 .294.1c.077 0 .157-.018.235-.026l-.103.231c.425.425.853.857 1.286 1.284.236.232.234.246-.028.442-1.363 1.019-2.724 2.042-4.086 3.062a3.296 3.296 0 0 1-.257.181c-.154.095-.264.148-.366.148-.113 0-.215-.066-.353-.211-.794-.835-1.853-1.205-2.859-1.672-6.707-3.117-13.488-6.067-20.313-8.912-2.122-.885-4.314-1.6-6.461-2.427a2.143 2.143 0 0 0-.784-.148c-.393 0-.78.105-1.191.263.067.246.117.505.21.748.147.381.315.754.49 1.124.082.174.058.291-.084.422-.27.25-.524.518-.813.807l-1.709-2.087c-.414.377-.821.732-1.212 1.104-1.197 1.142-2.42 2.254-3.785 3.197-.719.496-1.425 1.01-2.152 1.494a1.11 1.11 0 0 1-.637.181c-.193 0-.389-.035-.581-.08-1.121-.262-2.24-.531-3.36-.797l-2.165-.518c-.01-.002-.02-.002-.028-.005-.217-.107-.432-.182-.641-.182-.213 0-.421.077-.619.275-.038.038-.098.054-.172.093l1.348-2.147c-4.018 3.312-7.94 6.626-12.214 9.513l.243.303a.59.59 0 0 1-.021.026c-.06-.047-.113-.116-.18-.135a.781.781 0 0 0-.193-.034.181.181 0 0 0-.097.023c-.939.63-1.867 1.277-2.805 1.909-.553.374-1.192.54-1.835.671a.242.242 0 0 1-.047.004c-.119 0-.253-.078-.379-.113l-2.263-2.262c-.26-.485.013-.921.143-1.361.261-.886.893-1.56 1.373-2.32.254-.401.527-.792.814-1.17.185-.244.331-.456.015-.705l.31.239c2.887-4.271 6.2-8.195 9.513-12.212l-2.048 1.284c0-.001-.026-.065-.005-.106.064-.127.138-.25.221-.365.104-.143.093-.27.043-.443a57.463 57.463 0 0 1-.612-2.314c-.297-1.21-.576-2.425-.872-3.636-.144-.588-.073-1.107.308-1.611.87-1.151 1.655-2.369 2.567-3.485.908-1.109 1.928-2.126 2.898-3.183.032-.034.062-.069.122-.137l-2.087-1.709c.327-.327.633-.644.957-.943.01-.009.027-.013.047-.013.06 0 .152.033.214.057.559.211 1.115.429 1.673.641.061.023.13.021.227.036.148-.584.388-1.125.149-1.766-1.144-3.073-2.26-6.155-3.539-9.179a625.382 625.382 0 0 0-8.558-19.285c-.237-.513-.646-.956-1.022-1.392-.195-.225-.182-.41-.052-.611.212-.326.446-.638.679-.95.871-1.166 1.749-2.326 2.615-3.495.077-.104.139-.157.206-.157.06 0 .124.043.206.13.424.448.869.877 1.312 1.319.027-.024.076-.084.14-.119a.048.048 0 0 1 .018-.003c.034 0 .089.024.1.048.019.042-.002.101-.003.153-.002.099-.045.237.004.292.67.754 1.354 1.496 2.034 2.24.018.02.047.03.078.05.074-.074.139-.155.22-.214.04-.029.109-.019.165-.027.007.05.039.125.017.147-.336.342-.042.542.163.769 1.132 1.259 2.259 2.522 3.393 3.779 1.378 1.526 2.775 3.035 4.139 4.572 1.168 1.317 2.304 2.662 3.446 4.001.131.153.209.352.348.592l.179-3.711c-.147-.055-.276-.068-.335-.14-.032-.038.029-.209.095-.263.228-.185.294-.412.301-.698.014-.71.06-1.42.096-2.193-.117.105-.181.192-.266.231a.284.284 0 0 1-.125.021l-.102-.002-.031.001c-.001-.086-.018-.176 0-.258.01-.047.071-.088.116-.122.345-.257.5-.588.48-1.029a.63.63 0 0 1 .216-.463 59.12 59.12 0 0 1 2.3-1.683c.174-.122.383-.235.593-.235.105 0 .209.029.311.098.218.149.431.387.522.631a135.7 135.7 0 0 1 1.493 4.211c.766 2.281 1.498 4.573 2.265 6.852.169.5.248.989.165 1.508-.031.195-.036.395-.057.645.833-.404 1.708-.675 2.329-1.329a119.08 119.08 0 0 0 3.248-3.602c1.203-1.375 2.378-2.774 3.564-4.163 1.019-1.195 2.035-2.392 3.054-3.586 1.173-1.375 2.35-2.747 3.524-4.122 1.019-1.194 2.036-2.391 3.055-3.584 1.019-1.195 2.031-2.395 3.066-3.576.267-.304.387-.568.23-.979-.224-.585-.384-1.195-.548-1.8-.03-.108.01-.301.089-.363.517-.403 1.058-.776 1.582-1.17.073-.055.134-.082.191-.082.071 0 .137.043.214.125.317.339.653.66 1.006 1.012.282-.329.54-.642.811-.943.11-.122.284-.334.366-.334zm-16.531 28.692 2.445-1.426.208.284 3.636-1.726c-.057-.255-.184-.492-.134-.682.055-.207.275-.371.393-.516-.103-.205-.294-.416-.247-.519.203-.442.394-.942.738-1.259.965-.887 2.011-1.687 3.012-2.535.827-.701 1.637-1.422 2.456-2.134.093-.081.183-.13.275-.13.086 0 .172.043.263.144.23.254.471.5.728.726.177.157.159.311.05.475-.073.11-.175.2-.262.301-.441.51-.931.986-1.312 1.539-.868 1.259-1.68 2.558-2.522 3.836-.124.188-.229.352-.102.588.047.087-.006.223.006.334.012.109.048.214.074.321.248-.109.444-.161.601-.269 1.954-1.351 3.998-2.574 5.801-4.137.118-.102.223-.152.325-.152.12 0 .236.067.367.199.546.544 1.092 1.089 1.636 1.636.228.229.242.419.038.672-.399.496-.84.964-1.2 1.487-1.102 1.597-2.235 3.174-3.297 4.905.193.046.294.08.398.092.144.017.291.026.436.026h.014l.116.002a.387.387 0 0 0 .206-.041c.929-.594 1.851-1.199 2.775-1.801.763-.499 1.559-.952 2.206-1.612.233-.237.482-.46.735-.675.135-.115.24-.181.342-.181.098 0 .192.06.306.192.19.224.413.421.622.63.266.266.261.344.01.638a2225.247 2225.247 0 0 0-3.968 4.679c-.441.521-.85 1.06-1.528 1.324-.217.085-.327.139-.422.139-.106 0-.192-.066-.385-.232-.013-.011-.035-.01-.089-.023-.208.216-.431.424-.7.424-.144 0-.3-.059-.474-.207l-1.75 3.689.279.221-1.38 2.362.029.041c.062-.038.128-.071.186-.115 1.484-1.111 2.973-2.216 4.449-3.337.756-.574 1.541-1.125 2.224-1.779 1.663-1.594 3.28-3.235 4.902-4.871.373-.377.72-.788 1.026-1.22.257-.361.425-.768.412-1.245-.012-.489-.199-.916-.416-1.318a11.421 11.421 0 0 0-1.819-2.475 316.833 316.833 0 0 0-4.704-4.786 38.366 38.366 0 0 0-2.16-1.991c-.794-.68-1.626-1.316-2.635-1.665a1.837 1.837 0 0 0-1.33.013c-.629.246-1.121.684-1.585 1.141-1.621 1.596-3.219 3.216-4.823 4.83-.268.269-.548.533-.776.836-1.53 2.024-3.048 4.059-4.569 6.091-.041.054-.067.119-.136.242zm34.656-5.048h.004m-5.521 45.701h.005m2.527 2.537h.005m-15.145-73.758c-.555 0-.974.226-1.276.47a2.066 2.066 0 0 0-1.121-.33c-.471 0-.914.155-1.319.459-.209.158-.422.312-.634.466a34.5 34.5 0 0 0-.973.723c-.783.611-.936 1.638-.747 2.335l.035.129c.113.417.229.844.37 1.279a294.26 294.26 0 0 0-2.034 2.373l-.735.863-1.462 1.716-1.593 1.868-1.673 1.956-1.852 2.167-1.559 1.831-1.494 1.755-.97 1.139a274.018 274.018 0 0 1-2.579 3.007c-.796.91-1.703 1.943-2.647 2.959-.338-1.009-.67-2.021-1.001-3.033-.368-1.121-.736-2.243-1.111-3.362a142.185 142.185 0 0 0-1.514-4.268c-.219-.589-.665-1.145-1.223-1.527a2.419 2.419 0 0 0-1.368-.424c-.568 0-1.112.186-1.663.569a61.768 61.768 0 0 0-2.372 1.736 2.512 2.512 0 0 0-.939 1.7 1.967 1.967 0 0 0-.565 1.006c-.068.318-.05.579-.042.705.009.436.169.848.45 1.175-.006.125-.01.249-.014.372l-.071.106c-.229-.264-.46-.526-.691-.787-.867-.977-1.747-1.942-2.626-2.907a480.161 480.161 0 0 1-1.524-1.677c-.659-.729-1.315-1.461-1.971-2.193l-1.098-1.224a2.271 2.271 0 0 0-.06-.404 1.88 1.88 0 0 0-1.639-1.483c-.281-.307-.562-.615-.84-.925a1.957 1.957 0 0 0-1.382-1.544c-.23-.229-.459-.458-.681-.694-.56-.592-1.163-.716-1.569-.716-.387 0-1.123.119-1.714.916-.543.734-1.091 1.463-1.639 2.193l-.971 1.296c-.264.354-.512.686-.751 1.054-.597.923-.518 2.017.207 2.857l.119.137c.255.293.519.597.621.817a627.51 627.51 0 0 1 8.532 19.227c1.055 2.494 2.02 5.089 2.953 7.604a2.018 2.018 0 0 0-1.267.509c-.269.248-.526.506-.79.772l-.222.224a1.877 1.877 0 0 0 .138 2.778l.539.442a37.938 37.938 0 0 0-1.736 1.948c-.59.722-1.121 1.47-1.635 2.193-.321.453-.643.906-.978 1.349-.486.645-.991 1.721-.632 3.188.141.576.277 1.154.414 1.731.151.636.302 1.272.458 1.907.17.692.326 1.295.481 1.856a1.982 1.982 0 0 0-.127 1.38c-2.235 2.718-4.481 5.516-6.528 8.446a1.867 1.867 0 0 0-.906.633 1.868 1.868 0 0 0-.395 1.223c-.188.265-.369.533-.538.802-.121.19-.253.373-.384.557-.414.581-.93 1.304-1.205 2.236-.016.055-.037.11-.057.165-.176.483-.541 1.49.061 2.613.086.162.197.31.327.441l1.508 1.507.754.755c.215.215.48.375.77.465.192.074.519.197.936.197.126 0 .298-.017.421-.042.815-.166 1.683-.396 2.51-.953.441-.297.88-.598 1.318-.898l.801-.548a1.876 1.876 0 0 0 1.557-.683c.155-.189.269-.402.342-.627 2.898-2.023 5.666-4.241 8.354-6.45a1.865 1.865 0 0 0 1.367-.146c.018-.008.046-.019.08-.036.036.01.073.019.109.026l.665.159 1.468.35.851.203c.839.201 1.677.401 2.517.597.238.055.601.129 1.007.129.62 0 1.185-.167 1.678-.496.466-.31.923-.632 1.38-.954.265-.187.53-.373.797-.557 1.378-.952 2.609-2.053 3.737-3.12l.452.551a1.873 1.873 0 0 0 2.778.138l.262-.265c.169-.172.329-.335.496-.49.463-.426.713-.971.734-1.541.427.156.854.311 1.282.465 1.264.457 2.57.93 3.81 1.447 7.406 3.087 14.028 5.992 20.245 8.881.183.085.367.167.552.249.717.318 1.337.594 1.737 1.015.501.527 1.077.794 1.713.794.586 0 1.031-.229 1.354-.43.136-.084.267-.178.395-.274l1.417-1.063 2.667-1.998c.242-.181.886-.663.948-1.582.063-.919-.51-1.484-.726-1.697-.232-.229-.463-.46-.693-.69a1.874 1.874 0 0 0-1.51-1.343c-.321-.289-.641-.579-.96-.869a1.875 1.875 0 0 0-1.838-1.691H223.18l-.557-.496c-.359-.319-.719-.639-1.076-.962-.653-.591-1.303-1.185-1.954-1.779a634.763 634.763 0 0 0-2.441-2.22l-.365-.329c-.784-.709-1.59-1.438-2.41-2.152.035-.021.066-.042.095-.061l.382-.016a1.99 1.99 0 0 0 1.352.535c.342 0 .972-.094 1.519-.689a2.437 2.437 0 0 0 1.722-.949l.258-.339c.504-.66 1.025-1.343 1.501-2.082.648-1.005.592-1.852.431-2.385-.162-.536-.586-1.276-1.692-1.76a25.703 25.703 0 0 0-2.179-.824c-2.901-.965-5.807-1.92-8.713-2.87.157-.149.329-.301.504-.455l.072-.064c.865-.765 1.769-1.531 2.642-2.272l1.105-.939 1.188-1.016 3.065-2.617 1.766-1.506 1.709-1.458 4.233-3.616 1.34-1.145 1.675-1.433 1.02-.87c.469-.399.938-.798 1.406-1.199l.322.097c.332.101.666.201.997.305.236.075.474.113.707.113.418 0 1.206-.124 1.797-.958a44 44 0 0 1 1.024-1.39c.615-.802.677-1.742.215-2.515a1.876 1.876 0 0 0 .305-2.123l-.067-.129-.033-.065c-.482-1.126-1.53-1.835-2.73-1.835-.249 0-.503.03-.754.091l-.786.192c-.454.111-.907.222-1.363.328-.371.087-.743.17-1.113.251a1.878 1.878 0 0 0-.589-.095h-.01l-.068.001a1.9 1.9 0 0 0-.468.076 2.19 2.19 0 0 0-.908.448 2.588 2.588 0 0 0-1.062.452c-.111.08-.221.161-.331.243a2.852 2.852 0 0 0-.289-.283c-.493-.418-.995-.826-1.497-1.234-.867-.704-1.686-1.37-2.459-2.087-1.412-1.31-2.807-2.714-4.156-4.073l-.859-.864c-1.87-1.878-3.285-3.479-4.453-5.039-.094-.126-.167-.229-.228-.314a4.662 4.662 0 0 0-.469-.573l.166-.226c.18-.247.407-.636.503-1.123.228-.274.334-.541.382-.66.204-.451.22-.961.053-1.418l.023-.1c.235-1.002.469-2.003.724-2.999.249-.974.079-1.916-.478-2.653-.466-.616-1.114-.917-1.561-1.089a1.936 1.936 0 0 0-.689-.129zm-.935 21.92c.062-.143.107-.29.137-.437.11.101.218.203.326.304-.144.025-.3.067-.463.133zm4.729 4.733c.058-.145.101-.292.128-.441l.293.302a2.284 2.284 0 0 0-.421.139z"/></g><g style="display:block" opacity=".95"><path fill="#161616" d="M107.487 241.477c-.843 0-1.42-.412-1.84-.713-1.91-1.371-3.401-2.996-4.46-4.85-.703-1.472-.603-1.988.524-2.968l.106-.094a2.93 2.93 0 0 0 .226-.365c.174-.308.39-.691.882-1.139l3.174-3.278c-.176-1.308.853-2.219 1.566-2.85.155-.137.307-.27.438-.398-.04.006-.125.008-.127.008l-1.097.004c-.448 0-.979-.008-1.523-.066a.892.892 0 0 1-.115-.02c-1.138-.268-1.874-1.066-2.524-1.771a12.945 12.945 0 0 0-.539-.564h-.004a.937.937 0 0 1-.648-.26l-2.136 2.171c-.385.445-.824.548-1.118.548-.165 0-.395-.032-.634-.165l-.089.091c-.278.289-.566.588-.935.864-.275.214-.58.328-.892.328-.369 0-.715-.156-1.026-.465-.892-.881-3.905-3.841-3.905-3.841a.936.936 0 0 1-.203-1.039l.416-.967-2.23-.043c-.301 0-.564-.044-.792-.132l-.079.083c-1.325 1.36-2.826 2.901-5.039 2.901-.144 0-.29-.007-.44-.02 0 0-.745.449-1.071.641-.346.204-.721.403-1.159.403-.678 0-1.108-.467-1.392-.777a1.216 1.216 0 0 1-.279-.591l-.23-.226a.827.827 0 0 1-.263-.07c-.568-.273-.953-.724-1.084-1.271-.131-.55.013-1.151.394-1.647.442-.645.622-1.207.573-1.838-.038-1.771 1.086-2.905 2.078-3.905.264-.266.518-.524.74-.78-.147-.357-.144-.719-.143-.93a18.949 18.949 0 0 1 .003-1.509c.007-.207.013-.409.016-.609l-1.034.462a.938.938 0 0 1-1.039-.188l-1.11-1.088c-.936-.918-1.871-1.835-2.801-2.757-.829-.824-.512-1.504-.142-2.006.277-.373.576-.699.875-1.007a1.618 1.618 0 0 1-.11-.233.962.962 0 0 1-.054-.236c-.064-.648.331-1.046.5-1.216.306-.318.575-.589.845-.86.456-.458.893-.897 1.308-1.357a.944.944 0 0 1-.25-.6c-.198-.2-.36-.357-.522-.513a23.224 23.224 0 0 1-1.224-1.247c-.743-.811-.743-1.786-.744-2.57-.001-.244.001-.488-.028-.723a2.491 2.491 0 0 1 .011-.834l-1.217 1.237c-.525.532-1.002.739-1.703.739l-.093-.001-4.896 4.382c-.339.463-.886 1.146-1.772 1.146-.271 0-.542-.068-.806-.2-1.411-.529-5.311-3.523-5.982-5.634-.269-.845-.029-1.42.219-1.754.218-.245.399-.392.58-.536.18-.144.337-.268.381-.376.182-.44.47-.757.701-1.011.079-.087.159-.174.232-.267a.932.932 0 0 1 .406-.299.936.936 0 0 1 .258-.495l3.781-3.811a5.23 5.23 0 0 1-.024-.235c-.006-.071-.012-.142-.024-.212a1.526 1.526 0 0 1 .466-1.375l2.761-3.661c.023-.03.049-.059.075-.086l4.938-5.117c1.31-1.404 2.872-2.554 4.383-3.666l.618-.456c.439-.302.86-.37 1.167-.419.203-.033.33-.056.379-.101a.962.962 0 0 1 .086-.069c.44-.311.917-.512 1.339-.691.212-.09.426-.179.631-.283a.932.932 0 0 1 .694-.064l2.287.683a.94.94 0 0 1 .641.665c.182-.05.376-.083.578-.083.48 0 .909.186 1.244.539.215.23.437.442.646.644l.267.259a.937.937 0 0 1 .095 1.23l-.487.653.468.582a1.47 1.47 0 0 1 .278-.156.94.94 0 0 1 1.129.313l1.248 1.73a.938.938 0 0 1-.023 1.126c-.511.653-1.114 1.317-1.697 1.959-.276.304-.553.61-.825.918a.932.932 0 0 1 .409.235l3.709 3.647 2.938-2.561a.935.935 0 0 1 .617-.231c.244 0 .489.094.672.283l.48.494a.942.942 0 0 1 .16.221 6.84 6.84 0 0 1 1.172-1.534c3.493-3.586 6.967-7.141 10.496-10.72.709-1.711 2.616-2.574 4.024-3.211 1.165-.479 2.261-.976 3.357-1.472.996-.452 2.018-.913 3.056-1.347l-5.437-9.593a.943.943 0 0 1-.868-.103 4.192 4.192 0 0 1-.337-.257c-.652.551-1.249 1.159-1.849 1.785-.38.39-.839.644-1.433.788l-1.685 1.496a.935.935 0 0 1-.624.237h-.036a1.293 1.293 0 0 1-.386-.073c-.165.165-.329.338-.498.515-.395.414-.804.843-1.265 1.218a.94.94 0 0 1-.696.204c-.533-.059-.915-.346-1.105-.829a.936.936 0 0 1 .084-.849c.418-.65.958-1.145 1.48-1.625.427-.393.831-.763 1.127-1.183.295-.434.688-.791 1.035-1.106.374-.339.726-.659.868-.998a.934.934 0 0 1 .099-.181c.468-.658 1.051-1.221 1.615-1.765.258-.249.516-.497.756-.75 1.357-1.29 2.559-2.725 3.722-4.115a85.503 85.503 0 0 1 2.153-2.504c.274-.315.628-.447.905-.525.356-.1.673-.312 1.029-.686a33.88 33.88 0 0 0 1.551-1.599c1.011-1.09 2.055-2.217 3.36-3.065a.936.936 0 0 1 1.192.141 3.447 3.447 0 0 1 .222.269c.215.08.393.239.5.439a24.725 24.725 0 0 1 1.614-1.271c.243-.181.486-.36.726-.545a.934.934 0 0 1 1.05-.065c.505.298.824.678 1.069 1.01a.936.936 0 0 1-.021 1.141c-.646.81-1.401 1.469-2.153 2.09-.031.414-.241.892-.908 1.251-.831.634-1.616 1.444-2.375 2.228-.191.198-.382.396-.573.59.035.246.035.47-.001.694.214-.227.46-.475.781-.67a.94.94 0 0 1 .642-.121c.638.107.906.552 1.007.72a.94.94 0 0 1 .127.608c-.046.346-.12.719-.285 1.082l4.414 2.855c.122-.121.242-.245.362-.366.468-.475.951-.963 1.526-1.39a.942.942 0 0 1 .983-.084c.178.09.318.23.407.401a.928.928 0 0 1 .241.175c.314.313.377.64.374.859-.005.476-.304.763-.417.871-.236.258-.498.514-.76.77-.081.079-.161.156-.239.234l4.305 2.634c1.294-1.048 2.746-2.142 4.423-2.755.577-.176 1.24-.484 1.825-.754.623-.289 1.16-.538 1.586-.644a.938.938 0 0 1 .925.282c.895.994 1.624 1.701 2.36 2.295a.895.895 0 0 1 .114.108c.191.216.461.681.112 1.352-.387.774-.672 1.565-.974 2.401l-.183.506c-.647 1.803-1.74 3.3-2.817 4.739.132.348.37.674.636 1.037.148.201.295.403.429.611.257.366.523.78.789 1.195.284.444.558.873.844 1.273.111-.114.223-.232.337-.353.246-.259.492-.519.747-.761.086-.094.38-.409.875-.409.234 0 .461.071.677.213a.93.93 0 0 1 .304.327.966.966 0 0 1 .282.237c.317.397.466 1.068-.153 1.649-.46.471-1.456 1.481-1.456 1.481l2.957 4.409c.354-.167.716-.25 1.051-.305a.947.947 0 0 1 .567.082c.368.18.623.46.78.857a.939.939 0 0 1-.202 1.005l-.591.601c.134-.027.27-.041.41-.041.113 0 .227.009.342.026l.455-.457c.849-.854 1.652-1.662 2.325-2.571.341-.712.898-.871 1.22-.899.567-.717 1.225-1.488 2.011-2.161a.943.943 0 0 1 1.058-.111c.537.291.866.687 1.118 1.037a.94.94 0 0 1-.01 1.108c-.185.249-.366.499-.546.75-.397.553-.807 1.124-1.252 1.65a.928.928 0 0 1 .384.393c.008.015.026.047.125.097a.937.937 0 0 1 .474 1.122c-.21.661-.609 1.132-.972 1.505a285.86 285.86 0 0 1-3.939 4.002c-.169.168-.283.379-.395.733a2.538 2.538 0 0 1-.808 1.198l-8.356 7.914a.936.936 0 0 1-.245.168c-.529.25-.957.712-1.41 1.201-.297.321-.604.653-.965.957-.46.379-.869.81-1.304 1.267-.408.429-.83.871-1.302 1.278a.939.939 0 0 1-.558.226h-.013c-.345 0-.836-.093-1.151-.672a.945.945 0 0 1-.108-.35c-.067-.637.32-1.027.485-1.194.237-.266.51-.531.785-.795.206-.198.406-.39.588-.584a.94.94 0 0 1 .125-1.036l1.511-1.753a2.666 2.666 0 0 1 .769-1.426 23.015 23.015 0 0 0 1.742-1.907 5.841 5.841 0 0 1-.205-.237.94.94 0 0 1-.194-.788c.011-.054.024-.106.039-.156l-9.695-5.277-2.777 6.554c-.192.448-.383.897-.567 1.35-.344.842-.943 1.407-1.472 1.905-.157.147-.314.293-.461.448a1.216 1.216 0 0 1-.578.339l-9.25 9.374a.885.885 0 0 1-.108.095c-.334.248-.642.567-.967.905-.473.493-1.004 1.047-1.705 1.435a.978.978 0 0 1 .256.177l.451.436c.35.34.381.892.071 1.269l-2.492 3.037 3.796 3.732c.071.07.13.149.174.234.538-.488 1.074-.993 1.582-1.473.321-.303.629-.596.922-.866a.937.937 0 0 1 1.089-.135l1.972 1.079a.94.94 0 0 1 .431 1.15 1.528 1.528 0 0 1-.166.32l.52.429.54-.494a.937.937 0 0 1 1.218-.042c.59.47 1.049.922 1.444 1.422a.927.927 0 0 1 .121.2c.188.424.155.849.056 1.228a.937.937 0 0 1 .685.644l.694 2.318a.933.933 0 0 1-.004.551c-.158.504-.392.943-.619 1.367-.289.542-.538 1.01-.562 1.484.01.43-.262.759-.393.916-.007.011-.056.072-.064.082-.376.473-.724.975-1.073 1.477-.68.978-1.382 1.989-2.295 2.826-.258.348-.464.648-.581.974a.947.947 0 0 1-.254.378l-4.774 4.321a.867.867 0 0 1-.146.109l-5.614 3.373a.943.943 0 0 1-.244.439l-3.174 3.229a.96.96 0 0 1-.283.197 1.304 1.304 0 0 1-.282.09.887.887 0 0 1-.22.363c-.318.306-.654.559-.978.804-.505.381-.94.711-1.192 1.136a.936.936 0 0 1-.698.455 2.668 2.668 0 0 1-.304.017z" opacity="1"/><path fill="#FFF" d="M127.997 138.148c.338.2.563.452.791.759-.696.873-1.543 1.564-2.406 2.27.154.431-.025.662-.424.859-1.26.946-2.351 2.208-3.47 3.313.178.634.154.908-.129 1.471.353.322.775.546 1.181.791.479-.35.777-.854 1.239-1.133.194.032.277.141.36.278-.07.526-.192 1.039-.705 1.451l5.871 3.797c.812-.721 1.481-1.552 2.339-2.189-.001.574-.673.735-.783 1.351.542-.227.751-.748 1.194-.948.21.209.035.316-.071.426-.571.63-1.252 1.189-1.768 1.853l5.841 3.573c1.405-1.149 2.924-2.386 4.668-3.023 1.128-.341 2.605-1.19 3.317-1.368.77.854 1.571 1.674 2.468 2.396.097.11.021.222-.035.334-.48.961-.822 1.979-1.189 2.982-.654 1.822-1.817 3.336-2.955 4.857.144.961.813 1.61 1.295 2.359.773 1.102 1.445 2.345 2.315 3.343.659-.531 1.215-1.226 1.836-1.814.065-.065.126-.152.229-.152.046 0 .098.017.163.059-.187.458-.73.665-.879 1.226.6-.066.748-.729 1.246-.862.17.214-.003.317-.108.425-.666.684-1.297 1.321-1.972 2.008l3.933 5.86c.41-.491.916-.634 1.434-.72a.608.608 0 0 1 .322.362l-1.167 1.187c.273.473.528.891.87 1.285.248-.222.511-.314.787-.314.203 0 .413.048.631.133 1.128-1.171 2.345-2.283 3.304-3.601.113-.277.281-.442.528-.442.086 0 .182.021.289.064.681-.881 1.373-1.726 2.211-2.443.347.188.571.439.802.761-.62.833-1.194 1.699-1.841 2.448a.215.215 0 0 1-.056.009c-.098 0-.089-.111-.176-.111l-.017.001c-.154.109-.242.347-.195.478.188.563-.387.707-.525 1.178h.01c.443 0 .822-.221 1.25-.221l.056.002c.111.214.284.377.537.504-.147.462-.437.814-.75 1.136a295.446 295.446 0 0 1-3.927 3.989c-.327.324-.498.702-.629 1.115a1.605 1.605 0 0 1-.524.769l-8.39 7.947c-1.084.511-1.7 1.547-2.58 2.289-.942.775-1.694 1.759-2.614 2.552h-.023c-.143 0-.208-.083-.263-.184-.021-.205.112-.328.238-.455.608-.683 1.36-1.25 1.878-1.992l-.354-.452 1.694-1.965a1.72 1.72 0 0 1 .531-1.154 24.663 24.663 0 0 0 2.385-2.711c-.318-.182-.557-.435-.78-.703.058-.274.243-.464.343-.75l-11.377-6.191-2.95 6.961c-.269.635-.543 1.269-.803 1.907-.357.877-1.119 1.408-1.741 2.058-.116.121-.287.092-.344.101l-9.473 9.602c-.966.716-1.615 1.805-2.7 2.342-.743.295-1.438.685-1.703 1.503-.33.912-.808 1.672-1.14 2.599l3.032-2.5.451.437-3.037 3.7 4.408 4.333-1.123 2.375c1.659-1.137 3.606-3.08 5.097-4.462l1.972 1.08c-.109.296-.455.433-.642.746l1.911 1.571 1.14-1.043c.513.409.931.812 1.292 1.269.221.5-.299 1.22-.38 1.757-.047.154-.125.326.101.454.364-.033.618-.361.977-.452l.696 2.319c-.335 1.064-1.167 1.955-1.224 3.086.003.191-.149.318-.253.461-1.12 1.409-2.007 3.066-3.332 4.254-.304.406-.594.806-.767 1.289l-4.774 4.321-6.026 3.621-.018.338-3.173 3.229a.366.366 0 0 1-.153.032c-.113 0-.218-.047-.328-.047a.274.274 0 0 0-.056.006c-.297.119-.284.37-.228.64-.781.747-1.791 1.229-2.33 2.14a1.622 1.622 0 0 1-.194.011c-.555 0-.95-.292-1.321-.558-1.697-1.218-3.122-2.708-4.164-4.532-.531-1.118-.452-1.117.433-1.89.458-.485.454-.909 1.123-1.518l3.582-3.698c-.598-1.473 1.274-2.28 2.015-3.295.141-.142.263-.283.183-.485.141-.236.395-.353.498-.606-.125-.309-.509-.432-.547-.84-.471.276-.802.673-1.308.775h-.166l-.933.003c-.476 0-.95-.01-1.425-.061-1.273-.299-1.972-1.581-2.938-2.375l-.345.016c-.05-.176.062-.392-.21-.498-.054.015-.118.041-.186.041-.087 0-.18-.042-.263-.192-.96.975-1.849 1.882-2.793 2.84-.162.186-.313.268-.45.268-.231 0-.42-.232-.554-.567-.628.466-1.044 1.078-1.666 1.545-.124.096-.23.14-.33.14-.125 0-.239-.07-.364-.194-1.3-1.284-2.606-2.563-3.909-3.843l.967-2.247-3.621-.071-.067.001c-.316 0-.613-.053-.786-.486-1.484 1.444-2.913 3.336-5.076 3.336-.208 0-.424-.017-.646-.054-.446.268-.893.541-1.343.806-.303.179-.505.273-.681.273-.224 0-.407-.151-.703-.473-.109-.13.018-.253-.075-.393l-.787-.773-.196.068c-.701-.337-.741-.994-.351-1.502.515-.748.839-1.522.765-2.482-.042-2.012 2.123-3.12 3.086-4.653-.451-.195-.407-.6-.409-.977-.061-1.143.117-2.327-.061-3.439l-2.273 1.013c-1.304-1.28-2.612-2.556-3.91-3.841-.325-.323-.316-.416-.045-.784.437-.588.95-1.061 1.462-1.589-.247-.165-.479-.282-.574-.536-.024-.236.145-.368.285-.514.893-.93 1.842-1.807 2.674-2.829-.023-.14-.275-.277-.047-.411-.073-.213-.21-.22-.36-.22h-.033c-.036 0-.074-.001-.111-.005.081-.258-.061-.413-.227-.579-.586-.588-1.203-1.144-1.756-1.765-.712-.778-.425-1.844-.543-2.787-.119-.79.323-1.323.741-1.942-.382-.059-.526-.409-.834-.557-.232.102-.354.326-.539.475a.174.174 0 0 1-.119.037c-.033 0-.067-.003-.105-.003a.34.34 0 0 0-.166.039l-1.782 1.811c-.374.38-.618.459-1.033.459-.127 0-.27-.006-.437-.014l-5.255 4.701c-.292.404-.617.841-1.071.841a.895.895 0 0 1-.43-.121c-1.381-.452-6.475-4.503-5.386-5.968.35-.38.864-.601 1.075-1.114.175-.423.53-.705.806-1.058a.903.903 0 0 0 .186.022c.192 0 .346-.083.459-.291l-.054-.442 4.157-4.19c-.14-.277-.115-.59-.166-.89-.041-.238.062-.436.235-.576l2.817-3.734 4.939-5.116c1.435-1.538 3.178-2.756 4.884-4.02.511-.35 1.132-.143 1.614-.576.564-.399 1.241-.594 1.854-.907l2.288.684c-.069.318-.349.579-.439.934.042.147.123.191.22.191a.693.693 0 0 0 .206-.044c.473-.079 1.015-.461 1.499-.461.201 0 .394.066.566.248.311.332.645.642.934.926l-.921 1.235 1.552 1.929c.366-.11.433-.527.748-.661l1.248 1.728c-1.272 1.627-3.137 3.317-4.218 5.087.679-.333 1.04-.56 2.187-.727l4.328 4.255 3.593-3.132.48.493c-.774 1.077-1.786 1.977-2.679 3.098 1.105-.344 1.892-.918 2.934-1.306.604-.216.918-.68 1.133-1.214.293-.726.727-1.329 1.278-1.881 3.546-3.64 7.067-7.242 10.642-10.867.503-1.477 2.279-2.273 3.619-2.879 2.481-1.017 4.856-2.222 7.353-3.2l-6.416-11.322-.7.384c-.293-.201-.548-.437-.737-.78-.992.722-1.819 1.557-2.658 2.433-.318.327-.717.486-1.193.571l-1.871 1.662c-.242-.01-.32-.24-.543-.307-.792.684-1.451 1.538-2.235 2.176-.211-.023-.282-.105-.334-.24.678-1.054 1.845-1.728 2.582-2.773.565-.832 1.614-1.355 2.002-2.283.622-.878 1.531-1.617 2.285-2.412 2.153-2.044 3.903-4.441 5.89-6.636.125-.142.298-.204.467-.251.583-.165 1.033-.503 1.451-.94 1.58-1.495 2.913-3.337 4.743-4.528.2.211.287.466.574.504.01.47-.186.875-.219 1.342.349-.105.535-.398.832-.568.121.016.247.039.371.039a.57.57 0 0 0 .438-.17c.052-.143-.079-.12-.153-.219.774-.708 1.643-1.297 2.474-1.937zm27.573 37.623.082-.084-.008-.008c-.013.016-.026.03-.074.092zm-22.926-25.956h.006m-4.653-13.544c-.406 0-.811.132-1.146.391-.236.181-.474.359-.712.536-.333.247-.673.498-1.011.765a1.867 1.867 0 0 0-1.448-.681c-.353 0-.708.099-1.022.303-1.402.912-2.487 2.082-3.536 3.214a32.744 32.744 0 0 1-1.543 1.591c-.297.312-.472.392-.603.429-.371.104-.918.304-1.372.827a82.727 82.727 0 0 0-2.152 2.504c-1.199 1.432-2.332 2.784-3.615 4.002a1.499 1.499 0 0 0-.069.069c-.231.244-.478.481-.726.72-.595.574-1.211 1.166-1.728 1.895a1.901 1.901 0 0 0-.201.364c-.061.146-.392.446-.633.664-.386.35-.822.748-1.19 1.289-.219.31-.587.647-.976 1.004-.539.496-1.149 1.057-1.632 1.808a1.878 1.878 0 0 0-.17 1.701c.315.805 1 1.322 1.877 1.419a1.88 1.88 0 0 0 1.39-.411c.506-.412.935-.86 1.349-1.296l.147-.153a1.875 1.875 0 0 0 1.343-.471l1.148-1.02.373-.332a3.717 3.717 0 0 0 1.642-.975c.418-.436.832-.862 1.259-1.259.194.09.4.146.61.166l4.62 8.151c-.715.311-1.419.631-2.11.944a98.07 98.07 0 0 1-3.277 1.437l-.061.026c-1.439.65-3.543 1.602-4.444 3.537a2432.463 2432.463 0 0 0-10.388 10.612c-.218.218-.42.441-.605.672a1.873 1.873 0 0 0-2.431.032l-2.284 1.99-2.779-2.733.143-.158c.594-.654 1.209-1.331 1.741-2.01a1.878 1.878 0 0 0 .043-2.255l-1.248-1.728a1.869 1.869 0 0 0-1.144-.74 1.878 1.878 0 0 0-.44-2.004l-.278-.271c-.196-.189-.406-.388-.603-.598a2.637 2.637 0 0 0-1.935-.842h-.089a1.865 1.865 0 0 0-.86-.543l-2.287-.683a1.87 1.87 0 0 0-1.39.127c-.185.095-.377.173-.569.254-.464.197-.99.419-1.511.787a2.063 2.063 0 0 0-.077.013c-.35.056-.935.151-1.519.551l-.058.041-.617.455c-1.544 1.137-3.142 2.312-4.522 3.791l-4.916 5.095a1.628 1.628 0 0 0-.148.173l-2.718 3.603a2.448 2.448 0 0 0-.694 2.101l-3.465 3.493c-.15.152-.273.326-.362.515-.14.101-.266.222-.375.362-.059.075-.124.144-.188.214-.247.271-.579.635-.821 1.16-.043.037-.104.085-.153.124a5.328 5.328 0 0 0-.621.559 1.64 1.64 0 0 0-.125.151c-.31.417-.769 1.31-.36 2.597.793 2.497 4.844 5.547 6.492 6.209.385.186.783.28 1.189.28 1.282 0 2.051-.891 2.468-1.449l4.567-4.088a2.932 2.932 0 0 0 1.739-.681c.044.775.225 1.715.985 2.547.402.451.834.871 1.254 1.277l.291.282c-.269.283-.549.562-.836.851-.275.276-.548.552-.817.832-.246.248-.907.91-.799 1.998.005.052.011.104.021.155a9.338 9.338 0 0 0-.551.67c-1.113 1.509-.332 2.672.232 3.231.921.912 1.846 1.82 2.77 2.726l1.146 1.123a1.876 1.876 0 0 0 1.759.485c-.001.212.003.429.013.649v.036c-.001.239.015.463.05.673-.12.125-.246.254-.375.383-1.011 1.019-2.394 2.415-2.35 4.532l.004.106c.026.336-.036.677-.42 1.244-.526.712-.717 1.578-.524 2.385.197.828.762 1.501 1.589 1.899.031.015.061.028.092.041.093.237.219.426.337.567.019.024.04.047.06.069.323.351.993 1.08 2.084 1.08.641 0 1.163-.257 1.632-.533.277-.164.554-.33.829-.495.07.002.139.004.209.004 2.424 0 4.08-1.525 5.41-2.88.142.019.292.029.452.029l.056-.001.839.016a1.877 1.877 0 0 0 .511 1.765l1.135 1.114c.925.908 1.848 1.816 2.77 2.726.611.606 1.253.735 1.683.735.526 0 1.026-.18 1.483-.536.262-.197.493-.41.702-.617.155.027.282.033.365.033.477 0 1.175-.15 1.819-.858l1.612-1.64.017-.016.017.003c.094.099.191.205.291.314.704.764 1.581 1.715 2.998 2.048.076.018.152.031.229.039.207.023.412.038.609.049-.391.534-.707 1.191-.724 1.963l-2.894 2.987a5.1 5.1 0 0 0-1.02 1.326c-.062.108-.096.169-.125.209l-.006.004c-1.445 1.256-1.636 2.233-.787 4.017.021.043.042.084.065.125 1.126 1.972 2.708 3.696 4.7 5.126.491.352 1.269.911 2.414.911.134 0 .271-.008.414-.024a1.879 1.879 0 0 0 1.396-.911c.158-.266.525-.542.951-.864.329-.249.702-.531 1.06-.873a1.87 1.87 0 0 0 .237-.276l.002-.002c.212-.095.404-.229.567-.394l3.157-3.214c.135-.137.25-.296.339-.468l5.349-3.213c.104-.063.203-.134.293-.216l4.774-4.321c.228-.207.402-.467.506-.756.069-.192.216-.409.403-.664.954-.892 1.669-1.921 2.362-2.918.353-.508.686-.988 1.037-1.429l.047-.062c.169-.203.59-.713.613-1.494.024-.265.232-.656.452-1.069.235-.441.502-.939.687-1.526.112-.359.114-.743.007-1.103l-.696-2.319a1.864 1.864 0 0 0-.564-.875 2.523 2.523 0 0 0-.216-1.106 1.85 1.85 0 0 0-.243-.401 9.571 9.571 0 0 0-1.595-1.575 1.873 1.873 0 0 0-1.77-.31 1.877 1.877 0 0 0-.907-1.141l-1.973-1.081a1.873 1.873 0 0 0-2.176.271c-.296.274-.61.57-.937.879-.284.269-.578.544-.876.822l-2.192-2.155-.562-.552 1.947-2.375a1.875 1.875 0 0 0-.01-2.392c.33-.288.619-.589.89-.871.296-.31.576-.601.847-.802.077-.057.15-.119.218-.188l9.096-9.219c.332-.136.575-.329.742-.503.136-.143.282-.279.426-.415.569-.536 1.278-1.204 1.698-2.235.185-.454.377-.904.569-1.355l.224-.526 2.108-4.975.036-.082 3.617 1.968 4.627 2.52c.021.209.076.411.164.601-.393.452-.795.879-1.212 1.286a3.584 3.584 0 0 0-.976 1.66l-.356.414-1.002 1.164a1.875 1.875 0 0 0-.451 1.36l-.202.197c-.268.257-.544.522-.817.825-.251.255-.845.901-.737 1.934.026.248.1.489.22.707a2.136 2.136 0 0 0 2.041 1.157 1.879 1.879 0 0 0 1.114-.452c.507-.436.945-.898 1.369-1.343.414-.436.806-.846 1.213-1.181.422-.356.764-.725 1.065-1.051.406-.439.757-.819 1.122-.99.18-.085.347-.198.492-.335l8.36-7.919a3.466 3.466 0 0 0 1.05-1.59c.079-.249.131-.32.163-.352a288.384 288.384 0 0 0 3.953-4.013c.413-.426.922-1.025 1.192-1.877a1.875 1.875 0 0 0-.588-2.008c.251-.33.492-.666.728-.994.176-.245.354-.491.534-.735a1.874 1.874 0 0 0 .018-2.212c-.295-.41-.724-.932-1.431-1.316a1.878 1.878 0 0 0-2.117.224c-.743.636-1.37 1.34-1.916 2.013-.637.176-1.17.619-1.506 1.265-.352.467-.745.913-1.166 1.358a2.452 2.452 0 0 0-1.142-1.127 1.87 1.87 0 0 0-1.13-.166 6.49 6.49 0 0 0-.521.109l-.352-.527-1.776-2.645c.299-.305.599-.61.906-.926.995-.933.82-2.162.23-2.902a1.866 1.866 0 0 0-.34-.331 1.85 1.85 0 0 0-.465-.433 2.175 2.175 0 0 0-1.192-.367c-.592 0-1.115.235-1.555.701-.092.088-.182.178-.271.269l-.183-.284a37.661 37.661 0 0 0-.815-1.235c-.138-.212-.288-.417-.438-.623a10.665 10.665 0 0 1-.286-.401c.998-1.351 1.974-2.777 2.595-4.509l.181-.502c.291-.809.567-1.573.918-2.274.651-1.255-.015-2.165-.235-2.414a1.865 1.865 0 0 0-.232-.221c-.694-.56-1.388-1.236-2.25-2.192a1.872 1.872 0 0 0-1.85-.563c-.511.128-1.087.394-1.754.703-.556.257-1.186.55-1.649.69-.034.01-.067.021-.101.034-1.586.579-2.952 1.532-4.174 2.494l-2.725-1.668.158-.17c.448-.43.682-.944.689-1.518a2.132 2.132 0 0 0-.872-1.724 1.872 1.872 0 0 0-1.505-.761h-.007l-.039.001a1.864 1.864 0 0 0-1.097.382c-.551.41-1.008.855-1.443 1.294l-1.291-.836-1.875-1.213a6.08 6.08 0 0 0 .099-.563 1.872 1.872 0 0 0-.252-1.212c-.28-.467-.645-.801-1.087-.997.435-.43.867-.83 1.315-1.177.715-.407 1.094-.959 1.248-1.528.706-.593 1.406-1.228 2.032-2.013.53-.665.546-1.603.041-2.286-.301-.407-.697-.876-1.346-1.259a1.864 1.864 0 0 0-.953-.261z" opacity="1"/></g></g></svg>