<?xml version="1.0" encoding="UTF-8" standalone="no"?><!DOCTYPE svg PUBLIC "-//W3C//DTD SVG 1.1//EN" "http://www.w3.org/Graphics/SVG/1.1/DTD/svg11.dtd"><svg width="100%" height="100%" viewBox="0 0 274 203" version="1.1" xmlns="http://www.w3.org/2000/svg" xmlns:xlink="http://www.w3.org/1999/xlink" xml:space="preserve" xmlns:serif="http://www.serif.com/" style="fill-rule:evenodd;clip-rule:evenodd;stroke-linejoin:round;stroke-miterlimit:2;"><path d="M104.486,76.909l-88.177,125.455l-16.309,-15.406l117.189,-186.958l39.585,0l117.183,186.958l-16.4,15.5l-0.3,-0l-88.243,-125.549l0,62.774l62.813,62.775l-78.436,-0l0,-154.224c0,-0 -3.39,-14.982 -16.67,-14.982c-13.28,-0 -16.925,14.982 -16.925,14.982l-0,154.224l-78.123,-0l62.813,-62.775l-0,-62.774Zm23.903,54.507l0.004,0c2.441,-1.604 5.28,-2.498 8.2,-2.583c3.045,0.112 6.027,0.907 8.724,2.325l0,71.3l-16.928,0l0,-71.042Z"/></svg>