<svg id="Layer_1" data-name="Layer 1" xmlns="http://www.w3.org/2000/svg" viewBox="0 0 50 50"><path class="cls-1" d="M35.06 34.386l1.727-2.717-.06-.13h-2.882l1.215 2.847zm-6.693-15.712l4.15 9.74h2.829L25.607 6.383v22.031h2.76v-9.74zm-2.76 25.356l2.76-4.878v-7.613h-2.76V44.03zm-3.95-4.878L24.3 44.03V31.539h-2.643zm-8.437-7.483l1.727 2.717 1.215-2.847h-2.881zm8.437-12.995v9.74H24.3V6.383l-9.648 22.031H17.5zm-5.33 14.019l-.954 2.283a13.107 13.107 0 005.633 3.611l-.017-2.361a10.855 10.855 0 01-4.662-3.533zm13.316-18.724l1.4 3.2a10.7 10.7 0 014.635 10.573l1.407 3.212a12.826 12.826 0 00.928-4.809 13.058 13.058 0 00-8.368-12.171zm-10.781 3.2l1.4-3.2a13.011 13.011 0 00-7.44 16.98l1.407-3.212a10.741 10.741 0 01-.131-1.6 10.851 10.851 0 014.766-8.976zm10.061 19.057l-.017 2.353a13.042 13.042 0 005.633-3.611l-.955-2.275a10.852 10.852 0 01-4.661 3.533z"/><path class="cls-1" d="M24.956 2.719l4.436 10.226a14.111 14.111 0 01-.625 26.979l-3.8 7.179-3.82-7.179a14.111 14.111 0 01-.625-26.979l4.434-10.226zm0-3.038l-1.111 2.561-4.228 9.748a15.322 15.322 0 00.7 28.959l3.586 6.736 1.059 2 1.067-2.014L29.6 40.94a15.319 15.319 0 00.694-28.958l-4.227-9.74z"/><path class="cls-1" d="M15.182 29.134h-.4L13.6 30.853l-.018.052h.426l.2-.312h.608v.312h.425l.009-.035-.069-1.71zm-.374 1.129h-.382l.382-.591zm1.867-.13l-.374-.981-.008-.018H15.9l-.521 1.771h.426l.277-1.007.391 1.007h.408l.434-1.771h-.391zm1.319.173l-.113-1.172h-.364l-.035.009-.009.035.191 1.71v.026h.4l.947-1.728.008-.052h-.4zm.842.6h.425l.3-1.771h-.4zm1.389-1.771h-.4l-.3 1.771h1.241l.043-.356H20l.226-1.415zm2.439 0h-.4l-.764 1.718-.009.052h.417l.13-.312h.608l.078.312h.425v-.035l-.477-1.71-.009-.026zm-.1 1.129h-.382l.234-.591zm1.2-.087h.712l.008-.339h-.7l.009-.355h.859v-.348h-1.25l-.086 1.771h1.328v-.347h-.894zm2.3.043a.168.168 0 00.183-.191l-.026-.7a.178.178 0 00-.191-.191h-1.178l-.009 1.771h.425l-.008-1.432h.564l.009.443h-.513v.225l.582.764h.46v-.061l-.495-.625zm1.632-1.085H26.64a.165.165 0 00-.174.191l.061 1.389a.192.192 0 00.208.191h1.111a.168.168 0 00.183-.191l-.13-1.389a.192.192 0 00-.209-.192zm-.182.339l.087 1.094h-.651l-.07-1.094zm1.788-.339h-.963a.165.165 0 00-.174.191l.043.408a.191.191 0 00.122.174l.929.434.026.226h-.573l-.035-.313h-.417l.044.46a.2.2 0 00.226.191h1.024a.157.157 0 00.173-.191l-.069-.443a.2.2 0 00-.13-.173l-.92-.434-.026-.2h.547l.034.278h.408l-.052-.417a.216.216 0 00-.217-.191zm1.823.191a.224.224 0 00-.226-.191h-1.16l.269 1.771h.425l-.095-.581h.781a.144.144 0 00.156-.191l-.156-.808zm-.373.148l.1.512h-.555l-.087-.512zm1.319-.339h-.4l-.243 1.719.009.052h.425l.035-.312h.603l.174.312h.417l-.009-.043-1-1.7-.018-.026zm.243 1.129h-.382l.052-.591zm1.7-1.129h-1.037c-.113 0-.165.078-.139.191l.347 1.38a.242.242 0 00.243.191h1.094c.121 0 .182-.078.147-.191l-.147-.486H34.1l.1.339h-.634l-.286-1.085h.607l.087.321h.408l-.13-.469a.258.258 0 00-.243-.191zm1.3 1.424l-.122-.382h.708l-.121-.339h-.7l-.112-.355h.859l-.122-.348h-1.25l.546 1.77h1.328l-.121-.347z"/></svg>