<svg xmlns="http://www.w3.org/2000/svg" viewBox="0 0 50 50"><title>ARGOnav</title><path d="M25,7.63a19.58,19.58,0,0,0,0,39.15h0A19.57,19.57,0,0,0,44.53,27.21h0A19.57,19.57,0,0,0,25,7.63ZM23.53,9.75A16.63,16.63,0,0,1,40.17,26.37h0A16.63,16.63,0,0,1,23.53,43h0A16.63,16.63,0,0,1,6.9,26.38h0A16.63,16.63,0,0,1,23.53,9.75Z" /><path d="M25,13.86A13.78,13.78,0,1,0,38.74,27.68v0A13.79,13.79,0,0,0,25,13.86Zm0,.52a11.53,11.53,0,1,1-.06,0H25Z" /><path d="M24.91,10.61A15.75,15.75,0,1,0,40.66,26.36,15.75,15.75,0,0,0,24.91,10.61Zm0,.52A15.23,15.23,0,1,1,9.68,26.36,15.23,15.23,0,0,1,24.91,11.13Z" /><path d="M25,0A25,25,0,1,0,50,25,25,25,0,0,0,25,0Zm0,.52A24.48,24.48,0,1,1,.52,25,24.48,24.48,0,0,1,25,.52Z" /><path d="M24.91,5.5A21.73,21.73,0,1,0,46.64,27.23,21.73,21.73,0,0,0,24.91,5.5Zm0,.52A21.21,21.21,0,1,1,3.69,27.23,21.21,21.21,0,0,1,24.91,6h0Z" /></svg>