<?xml version="1.0" encoding="UTF-8" standalone="no"?><!DOCTYPE svg PUBLIC "-//W3C//DTD SVG 1.1//EN" "http://www.w3.org/Graphics/SVG/1.1/DTD/svg11.dtd"><svg width="100%" height="100%" viewBox="0 0 80 80" version="1.1" xmlns="http://www.w3.org/2000/svg" xmlns:xlink="http://www.w3.org/1999/xlink" xml:space="preserve" xmlns:serif="http://www.serif.com/" style="fill-rule:evenodd;clip-rule:evenodd;stroke-linejoin:round;stroke-miterlimit:2;"><path d="M6,34l5,0c0,-2.208 1.792,-4 4,-4l6,0c2.208,0 4,1.792 4,4l0,11l49,0l0,-7l-13,0c0,2.208 -1.792,4 -4,4l-25,0c-2.208,0 -4,-1.792 -4,-4l0,-4c0,-2.208 1.792,-4 4,-4l21,0l0,4l-21,0l0,4l25,0l0,-4l17,0c2.208,0 4,1.792 4,4l0,7c0,2.208 -1.792,4 -4,4l-68,0c-2.208,0 -4,-1.792 -4,-4l0,-7c0,-2.208 1.792,-4 4,-4Zm0,4l0,7l15,0l-0,-11l-6,0l0,4l-9,0Z"/></svg>