<svg width="100%" height="100%" viewBox="0 0 152 261" version="1.1" xmlns="http://www.w3.org/2000/svg" xmlns:xlink="http://www.w3.org/1999/xlink" xml:space="preserve" xmlns:serif="http://www.serif.com/" style="fill-rule:evenodd;clip-rule:evenodd;stroke-linejoin:round;stroke-miterlimit:2;"><path d="M76.602,105.2c5.1,0 10.2,0.5 15.2,1.5l-0,106c-10.3,5.5 -22.8,5 -32.7,-1.3l-0,-104.2c5.8,-1.3 11.6,-2 17.5,-2Zm55.3,-29.3l-22.6,14.4l-17.5,0l-0,5.9c-5,-0.8 -10.1,-1.3 -15.2,-1.3c-5.9,0 -11.8,0.6 -17.5,1.8l-0,-6.4l-17.5,0l-22.6,-14.3l47.5,0l-0,-52.2c-2.8,-2.6 -4.4,-6.1 -4.5,-9.9c-0.1,-7.6 5.9,-13.8 13.4,-13.9c3.8,0.1 7.4,1.7 9.9,4.5c5.1,5.5 4.7,14.1 -0.9,19.2l-0,52.2l47.5,0Zm-16,88.9c-3.1,-6.9 -7.9,-12.9 -14,-17.4l-0,-37.9c24.7,9 43.2,29.7 49.2,55.3l-35.2,0Zm-14,53.6c6.1,-4.5 10.9,-10.4 14.1,-17.2l35.2,0c-8,34.2 -38.3,59.6 -74.5,59.6c-42.4,0 -76.7,-34.8 -76.7,-77.8c-0.2,-32 19.3,-60.8 49,-72.6l-0,38.8c-1.8,1.5 -3.5,3.2 -5.1,5.1c-15.9,18.6 -13.6,46.6 5.1,62.4l3.2,2.5l1.5,1c0.4,0.3 0.8,0.5 1.2,0.7c0.8,0.5 1.5,0.9 2.3,1.3c1.4,0.7 2.8,1.3 4.2,1.9c0.3,0.2 0.6,0.3 0.9,0.4c0.7,0.2 1.5,0.5 2.2,0.7c0.7,0.2 1.4,0.3 2.1,0.5c0.8,0.2 1.5,0.4 2.3,0.5c0.9,0.2 1.7,0.3 2.6,0.4c0.5,0 0.9,0.1 1.3,0.1c1.2,0.1 2.5,0.2 3.8,0.2c1.6,0 3.2,-0.1 4.8,-0.3c0.2,-0.1 0.4,-0.1 0.6,-0.1c1.2,-0.2 2.5,-0.4 3.8,-0.7c1,-0.2 2,-0.5 2.9,-0.8l0.9,-0.3c1,-0.3 1.9,-0.7 2.9,-1.1c0.3,-0.1 0.5,-0.2 0.8,-0.3c0.9,-0.4 1.8,-0.8 2.7,-1.3c0.1,0 0.3,-0.1 0.5,-0.2l1.4,-0.8l4,-2.6Z"/></svg>