<?xml version="1.0" encoding="UTF-8" standalone="no"?><!DOCTYPE svg PUBLIC "-//W3C//DTD SVG 1.1//EN" "http://www.w3.org/Graphics/SVG/1.1/DTD/svg11.dtd"><svg width="100%" height="100%" viewBox="0 0 50 50" version="1.1" xmlns="http://www.w3.org/2000/svg" xmlns:xlink="http://www.w3.org/1999/xlink" xml:space="preserve" xmlns:serif="http://www.serif.com/" style="fill-rule:evenodd;clip-rule:evenodd;stroke-linejoin:round;stroke-miterlimit:2;"><path d="M45.494,50.038l-19.7,-0l19.7,-15.7l0,15.7Zm0,-23l-7.8,-11.7l7.8,-12.4l0,24.1Zm-10.4,-27l8.9,-0l-5.4,8.9c0.2,-2.4 -0.1,-4.3 -0.9,-5.7c-0.7,-1.3 -1.6,-2.4 -2.6,-3.2Zm-20.7,26.1c-5.5,5.7 -1.5,11.6 2.5,13.3c3.9,1.7 5,5.5 2.4,9.1c0.1,-4.1 -3.6,-6.4 -5.8,-4.5c-0.8,0.6 -1.6,2.2 -1.3,6l-1.3,0c-0.2,-3.7 -2.7,-6.7 -3.7,-7.7c-4.1,-4 -4.7,-14.8 7.2,-16.2Zm-9.6,17.2c2.5,1.5 4,3.3 4.4,6.7l-4.4,0l0,-6.7Zm18.4,-43.3c1.8,1.4 3.5,2.8 5.2,4.4c-0.1,-0.9 -0.4,-1.7 -0.9,-2.4c-0.4,-0.7 -0.9,-1.4 -1.3,-2l5.6,0c2,1.7 4.8,4.5 4.3,8.7c-0.3,3 -1.4,4.5 -1.4,5.8c0,0.9 1.4,3.1 4.1,6.6c-0.1,1 -0.2,1.6 -0.2,1.7c1.9,2.5 3.8,4.9 5.7,7.4c-0.5,1.4 -1.7,3 -2.8,3.8c-0.6,-0.3 -0.8,-0.9 -0.7,-1.3c0,-0.4 0.4,-1 0.4,-1.9l-0.8,-0.3c-1,2.1 -0.2,3.5 0.8,4.2c-2.2,1.5 -4.4,2.9 -7.2,2.9l0,-1.3c-1,0.5 -2.9,1.2 -2.9,1.1c1.9,-2 1.4,-4.7 0.1,-5.7c-1.3,-1 -3.8,-1.5 -6.8,0c-0.3,2.1 0.3,4.7 2.2,6.3c1.2,-0.2 2.1,-0.2 3.5,-0.8l-0.6,1.6c0.4,0.1 3.8,0.5 3.8,0.5c-1.6,2.4 -3.2,6.2 -10.7,8.8c4.2,-4.7 1.8,-8 -0.7,-9c-4,-1.5 -4.9,-5.3 -4.4,-6.8c-0.8,0.3 -1.9,2.1 -0.9,3.7c-4,-2.6 -2.4,-6.5 -0.9,-8.5c0.8,-0.1 1.3,-0.1 2,0.2l0.2,-0.2c-1.1,-1.1 -2.3,-2.1 -3.5,-3.3c-3.8,0.3 -7.3,1.2 -9.6,4.7l0,-11.9c3.2,-0 7,1.3 8.8,2.8c-1.6,-2.4 -5.3,-5.1 -8.8,-5.7l0,-14.2l2.4,-0c10.7,0.1 16,0.1 16,0.1Zm-5.1,7.3c-1.5,1 -0.3,6.3 1.3,9.5c-0.8,-3 -1,-7 -0.3,-7.4c0.7,-0.4 5.3,4 7,6.2c0.2,-2 0.3,-3.8 0.4,-5.6l-0.3,-0.1l-0.9,1.9c-1.2,-1.2 -5.7,-5.5 -7.2,-4.5Zm11.8,12.3l-0.1,0.2c1.8,1.7 3.5,3.3 5.3,5l0.3,-0c-0.5,-0.9 -0.9,-1.7 -1.4,-2.6c0.3,-0.3 0.6,-0.6 0.9,-1c-1.7,-0.5 -3.4,-1.1 -5,-1.6Z"/></svg>