<?xml version="1.0" encoding="UTF-8" standalone="no"?><!DOCTYPE svg PUBLIC "-//W3C//DTD SVG 1.1//EN" "http://www.w3.org/Graphics/SVG/1.1/DTD/svg11.dtd"><svg width="100%" height="100%" viewBox="0 0 263 210" version="1.1" xmlns="http://www.w3.org/2000/svg" xmlns:xlink="http://www.w3.org/1999/xlink" xml:space="preserve" xmlns:serif="http://www.serif.com/" style="fill-rule:evenodd;clip-rule:evenodd;stroke-linejoin:round;stroke-miterlimit:2;"><path d="M117.825,40.9l5.3,1.4c1.8,0.5 3,2.1 3,3.9l-0,157.5c-0,1.8 -1.2,3.4 -3,3.9l-5.3,1.4c-1.8,0.5 -3.6,-0.3 -4.5,-1.9l-45,-78.2c-0.4,-0.6 -0.5,-1.3 -0.5,-2l-0,-3.9c-0,-0.7 0.2,-1.4 0.5,-2l45,-78.2c0.9,-1.6 2.7,-2.3 4.5,-1.9m26.4,0l-5.3,1.4c-1.8,0.5 -3,2.1 -3,3.9l-0,157.5c-0,1.8 1.2,3.4 3,3.9l5.3,1.4c1.8,0.5 3.6,-0.3 4.5,-1.9l45,-78.2c0.4,-0.6 0.5,-1.3 0.5,-2l-0,-3.9c-0,-0.7 -0.2,-1.4 -0.5,-2l-45,-78.2c-0.9,-1.6 -2.7,-2.3 -4.5,-1.9m-143.7,-33.9l2.9,-5c0.7,-1.2 2,-2 3.5,-2l106.5,0c1.4,0 2.8,0.8 3.5,2l2.9,5c0.7,1.2 0.7,2.8 -0,4l-53.2,92.2c-0.7,1.2 -2,2 -3.5,2l-5.8,0c-1.4,0 -2.8,-0.8 -3.5,-2l-53.3,-92.2c-0.7,-1.2 -0.7,-2.8 -0,-4m142,0l2.9,-5c0.7,-1.2 2,-2 3.5,-2l106.5,0c1.4,0 2.8,0.8 3.5,2l2.9,5c0.7,1.2 0.7,2.8 -0,4l-53.2,92.2c-0.7,1.2 -2,2 -3.5,2l-5.8,0c-1.4,0 -2.8,-0.8 -3.5,-2l-53.3,-92.2c-0.7,-1.2 -0.7,-2.8 -0,-4"/></svg>