<?xml version="1.0" encoding="UTF-8" standalone="no"?><!DOCTYPE svg PUBLIC "-//W3C//DTD SVG 1.1//EN" "http://www.w3.org/Graphics/SVG/1.1/DTD/svg11.dtd"><svg width="100%" height="100%" viewBox="0 0 24 24" version="1.1" xmlns="http://www.w3.org/2000/svg" xmlns:xlink="http://www.w3.org/1999/xlink" xml:space="preserve" xmlns:serif="http://www.serif.com/" style="fill-rule:evenodd;clip-rule:evenodd;stroke-linejoin:round;stroke-miterlimit:2;"><path d="M11.988,0.012l0,-0.012c3.182,-0.003 6.239,1.262 8.488,3.513c2.242,2.254 3.513,5.299 3.513,8.476c0.012,6.63 -5.359,12.001 -11.977,12.001c-6.63,0.012 -12.001,-5.359 -12.001,-11.977c-0.012,-6.63 5.359,-12.001 11.977,-12.001Zm0,6.954l0,0.012c-1.409,-0.001 -2.757,0.586 -3.717,1.618c-1.894,2.05 -1.774,5.251 0.276,7.146c2.05,1.894 5.251,1.774 7.146,-0.276l-6.714,-0l-0,-6.894l6.714,0c-0.96,-1.019 -2.302,-1.606 -3.705,-1.606Zm0,-5.755l-0.012,-0c-0.755,-0 -1.511,0.084 -2.242,0.24c-5.815,1.247 -9.531,6.977 -8.284,12.792c1.247,5.815 6.977,9.531 12.792,8.284c5.815,-1.247 9.531,-6.977 8.284,-12.792l-12.42,0l-0,4.604l7.625,-0c-0.937,2.356 -3.228,3.91 -5.763,3.91c-2.071,0 -4.01,-1.037 -5.159,-2.759c-0.683,-1.021 -1.047,-2.221 -1.047,-3.448c-0,-2.072 1.038,-4.011 2.761,-5.16c1.02,-0.683 2.221,-1.047 3.448,-1.047c2.072,-0 4.011,1.038 5.16,2.761l5.072,0c-1.463,-4.4 -5.575,-7.385 -10.215,-7.385Zm0.995,9.531l0.887,0c0,0 0.108,0.024 0.156,0.048c0.096,0.048 0.156,0.144 0.192,0.24l-0,1.175c-0,-0 -0.012,0.12 -0.036,0.168c-0.036,0.06 -0.084,0.108 -0.132,0.144c0.048,0.263 0.108,0.527 0.168,0.791l-0.396,-0c0,-0 -0.024,-0 -0.024,-0.024l-0.144,-0.72l-0.311,0l-0,0.744l-0.36,-0l0,-2.566Zm0.42,0.408l-0,0.995l0.407,-0c0,-0 0.072,-0.06 0.06,-0.108l0,-0.839c-0.013,-0.029 -0.041,-0.047 -0.072,-0.048l-0.395,-0Zm3.584,-0.408l0.384,0l0,0.024l-0.048,0.6l0,0.036l-0.419,1.198l-0.024,0.072l-0,0.624l-0.396,-0l-0,-0.624l-0.096,-0.215c-0.12,-0.336 -0.228,-0.672 -0.348,-1.008l0,-0.095l-0.036,-0.564l0,-0.048l0.408,0l-0,0.048c-0,0.192 0.024,0.384 0.036,0.576l-0,0.095c0.072,0.192 0.144,0.396 0.216,0.6l0.168,-0.48l0.06,-0.155l-0,-0.12l0.035,-0.516l0.06,-0.048Zm3.585,-0.012l1.283,0l-0,0.396l-0.432,-0l0,2.158l-0.407,-0l-0,-2.134l-0.444,-0l0,-0.42Zm-6.018,-0.012l1.163,0l-0,0.384l-0.744,-0l0,0.659l0.588,0l-0,0.372l-0.588,-0l0,0.659l0.72,0l-0,0.408l-1.139,-0l-0,-2.482Zm5.116,0.036l0.399,0c0.096,0.432 0.191,0.863 0.299,1.295l0.144,0.611l0.048,0.636l0,0.024l-0.419,-0l-0,-0.408l-0.528,0l-0.024,0.384l0,0.024l-0.408,-0l0,-0.024l0.048,-0.636c0.143,-0.631 0.286,-1.263 0.441,-1.906Zm0,0l-0.009,0l0.012,-0.012c-0.001,0.004 -0.002,0.008 -0.003,0.012Zm0.003,1.715l0.384,-0c-0.072,-0.276 -0.132,-0.552 -0.192,-0.828c-0.06,0.276 -0.132,0.552 -0.192,0.828Zm-1.714,-1.727l0.599,0c-0,0 0.12,0 0.168,0.036l0.108,0.072c0.036,0.036 0.06,0.072 0.084,0.12c0.024,0.048 0.036,0.096 0.036,0.144l-0,0.419l-0.396,0l-0,-0.335c-0,-0.024 -0.036,-0.048 -0.06,-0.048l-0.36,-0c-0.024,0.012 -0.048,0.048 -0.048,0.072l0,1.558c0,0 0.036,0.084 0.072,0.096l0.336,0c0,0 0.048,-0.024 0.048,-0.048l-0,-0.335l0.408,-0l-0,0.539c-0,0.048 -0.024,0.108 -0.06,0.144c-0.048,0.072 -0.132,0.132 -0.216,0.144l-0.684,-0c0,-0 -0.095,-0.012 -0.131,-0.036c-0.048,-0.021 -0.089,-0.054 -0.12,-0.096c-0.045,-0.055 -0.074,-0.122 -0.084,-0.192l-0,-1.918c-0,-0.06 0.024,-0.12 0.048,-0.168c0.06,-0.096 0.144,-0.156 0.252,-0.168Zm-6.031,-8.332c3.548,0.001 6.821,1.958 8.5,5.083l-2.757,0c-1.388,-1.759 -3.509,-2.787 -5.749,-2.787c-2.24,-0 -4.361,1.028 -5.749,2.787c-2.505,3.177 -1.966,7.781 1.211,10.287c3.177,2.505 7.781,1.966 10.287,-1.211l2.757,-0c-1.666,3.141 -4.939,5.119 -8.5,5.119l-0.432,0c-5.206,-0.116 -9.425,-4.431 -9.425,-9.639c-0,-5.289 4.352,-9.642 9.641,-9.642c0.072,0 0.144,0.001 0.216,0.003Zm-0.396,8.32l0.756,0c0.096,0.024 0.18,0.072 0.24,0.144c0.035,0.048 0.059,0.108 0.071,0.18l0,0.431l-0.419,0l-0,-0.263c-0,-0 -0,-0.06 -0.036,-0.072l-0.348,-0c0,-0 -0.06,-0 -0.072,0.036c-0.012,0.012 -0.024,0.036 -0.024,0.06l0,1.594c0.012,0.024 0.036,0.048 0.06,0.048l0.312,0c-0,0 0.072,-0.024 0.084,-0.072l-0,-0.371l-0.228,-0l0,-0.396l0.635,-0l0,0.995c-0.027,0.1 -0.091,0.186 -0.179,0.24c-0.048,0.024 -0.096,0.048 -0.156,0.048l-0.564,-0c0,-0 -0.096,-0 -0.144,-0.024c-0.053,-0.024 -0.101,-0.056 -0.143,-0.096c-0.06,-0.06 -0.096,-0.12 -0.096,-0.204l-0,-2.026c0.012,-0.048 0.048,-0.096 0.084,-0.144c0.048,-0.048 0.095,-0.084 0.155,-0.096l0.012,-0.012Z"/></svg>