<?xml version="1.0" encoding="UTF-8" standalone="no"?><!DOCTYPE svg PUBLIC "-//W3C//DTD SVG 1.1//EN" "http://www.w3.org/Graphics/SVG/1.1/DTD/svg11.dtd"><svg width="100%" height="100%" viewBox="0 0 25 20" version="1.1" xmlns="http://www.w3.org/2000/svg" xmlns:xlink="http://www.w3.org/1999/xlink" xml:space="preserve" xmlns:serif="http://www.serif.com/" style="fill-rule:evenodd;clip-rule:evenodd;stroke-linejoin:round;stroke-miterlimit:2;"><path d="M11.591,0l-0.163,0.617l-0.66,0l-0.4,0.963l0.844,-0.487l0.086,0l-0.487,2.457l0,14.588l1.267,1.862l1.244,-1.862l0,-18.138l-1.731,0Zm0.249,0.855l-0.284,-0.289l0.9,0l-0.616,0.289Zm2.554,1.05l9.816,0l-1.05,1.59l-1.028,0l-0,1.505l-1.576,2.366l-0,-3.9l-0.477,0l0,4.61l-1.612,2.414l0,-7.016l-0.476,0l0,7.738l-1.624,2.413l0,-10.151l-0.476,0l0,10.541l-1.6,-2.446l0,-8.084l-0.324,-0l0.427,-1.58Zm-4.578,0l0.433,1.58l-0.325,0l-0,8.081l-1.6,2.446l-0,-10.538l-0.478,0l-0,10.151l-1.613,-2.413l-0,-7.738l-0.477,-0l-0,7.024l-1.623,-2.414l-0,-4.61l-0.477,-0l0,3.9l-1.58,-2.37l0,-1.509l-1.026,-0l-1.05,-1.59l9.816,0Z" style="fill-rule:nonzero;"/></svg>