<?xml version="1.0" encoding="UTF-8" standalone="no"?><!DOCTYPE svg PUBLIC "-//W3C//DTD SVG 1.1//EN" "http://www.w3.org/Graphics/SVG/1.1/DTD/svg11.dtd"><svg width="100%" height="100%" viewBox="0 0 24 24" version="1.1" xmlns="http://www.w3.org/2000/svg" xmlns:xlink="http://www.w3.org/1999/xlink" xml:space="preserve" xmlns:serif="http://www.serif.com/" style="fill-rule:evenodd;clip-rule:evenodd;stroke-linejoin:round;stroke-miterlimit:2;"><path d="M11.49,2.087l-0.161,0.611l-0.654,0l-0.397,0.955l0.837,-0.483l0.085,0l-0.483,2.436l0,14.461l1.256,1.846l1.233,-1.846l0,-17.98l-1.716,-0Zm0.247,0.847l-0.281,-0.286l0.892,-0l-0.611,0.286Zm2.532,1.041l9.731,0l-1.041,1.576l-1.019,0l0,1.492l-1.562,2.346l-0,-3.866l-0.473,-0l-0,4.57l-1.598,2.393l-0,-6.955l-0.472,-0l-0,7.67l-1.61,2.393l0,-10.063l-0.472,-0l0,10.449l-1.586,-2.425l0,-8.013l-0.321,-0l0.423,-1.567Zm-4.538,0l0.429,1.567l-0.322,-0l-0,8.01l-1.586,2.425l-0,-10.446l-0.474,-0l-0,10.063l-1.599,-2.393l-0,-7.67l-0.473,-0l0,6.963l-1.609,-2.393l0,-4.57l-0.473,-0l0,3.866l-1.566,-2.35l-0,-1.496l-1.017,0l-1.041,-1.576l9.731,0Z" style="fill-rule:nonzero;"/></svg>