<?xml version="1.0" encoding="UTF-8" standalone="no"?><!DOCTYPE svg PUBLIC "-//W3C//DTD SVG 1.1//EN" "http://www.w3.org/Graphics/SVG/1.1/DTD/svg11.dtd"><svg width="100%" height="100%" viewBox="0 0 24 24" version="1.1" xmlns="http://www.w3.org/2000/svg" xmlns:xlink="http://www.w3.org/1999/xlink" xml:space="preserve" xmlns:serif="http://www.serif.com/" style="fill-rule:evenodd;clip-rule:evenodd;stroke-linejoin:round;stroke-miterlimit:2;"><path d="M18.456,4.32l2.448,7.68l-10.128,12l-3.936,0l3.648,-4.32l-4.992,0l-2.4,-7.68l10.176,-12l3.888,-0l-3.648,4.32l4.944,-0Zm-7.92,10.32c0.288,-0.336 0.624,-0.624 0.864,-0.912c-0.912,-0.384 -1.584,-0.96 -2.064,-1.776l2.4,0l0.24,-0.864l-2.736,0l0.192,-0.768l2.4,0l0.24,-0.864l-2.4,0l0.24,-0.96l-0.912,-0l-0.24,0.96l-2.304,-0l-0.24,0.864l2.352,-0l-0.192,0.768l-2.688,0l-0.24,0.864l2.4,0c-0.816,0.768 -1.824,1.392 -3.024,1.92c0.144,0.24 0.288,0.528 0.432,0.816c0.977,-0.538 1.88,-1.199 2.688,-1.968l-0.624,2.304l0.912,-0l0.624,-2.352c0.369,0.797 0.95,1.478 1.68,1.968Zm7.728,-4.08l-0.528,-0.48l1.056,-0l0.288,-0.912l-2.4,-0l0.192,-0.72l-0.96,-0l-0.192,0.72l-2.352,-0l-0.24,0.864l1.056,-0l-0.768,0.48c0.192,0.384 0.384,0.672 0.48,0.912l-1.488,-0l-0.24,0.864l2.112,-0c-0.816,0.624 -1.68,1.152 -2.64,1.536c0.144,0.24 0.24,0.528 0.384,0.816c1.056,-0.528 1.968,-1.152 2.688,-1.872l-0.576,2.208l0.96,-0l0.576,-2.208c0.336,0.72 0.912,1.296 1.728,1.824c0.288,-0.288 0.528,-0.576 0.816,-0.816c-0.816,-0.336 -1.44,-0.816 -1.872,-1.44l2.208,-0l0.24,-0.864l-1.584,-0c0.288,-0.24 0.672,-0.528 1.056,-0.912Zm-2.256,0.912l0.336,-1.344l1.296,-0c-0.384,0.288 -0.72,0.624 -1.056,0.864l0.48,0.48l-1.056,-0Zm-1.296,-0.48c-0.192,-0.336 -0.384,-0.624 -0.576,-0.912l1.296,-0l-0.384,1.392l-1.104,-0l0.768,-0.48Z"/></svg>