<svg xmlns="http://www.w3.org/2000/svg" viewBox="0 0 50 50"><title>RSInav</title><path d="M39.42,14h-.06l-1.3,5H39l1.3-5Z" /><path d="M16.6,31a.9.9,0,0,1-.77-.67l-.89-3.8,4.06-2a4.08,4.08,0,0,0,2.1-2.65l1.39-5.37A1.88,1.88,0,0,0,20.6,14H5.6L0,36H5.28l1.36-5.33,3.56-1.79,1.27,5.3A2.49,2.49,0,0,0,13.76,36H18l1.3-5ZM8.31,24l1.26-5h6.11c.47,0,.8.25.68.63a1.59,1.59,0,0,1-.89,1l-7.2,3.6Z" /><path d="M37.31,26.52l-8.48-5.6a1,1,0,0,1-.53-1.13.92.92,0,0,1,1-.73L37.18,19h0v.06L38.5,14H26.26A2.52,2.52,0,0,0,24,15.82l-1.22,4.81a2.87,2.87,0,0,0,1.1,2.85l8.54,5.69a.9.9,0,0,1,.44,1.09,1,1,0,0,1-.92.7H25.45l-1.31,5H34.82a2.58,2.58,0,0,0,2.37-1.84l1.22-4.79A2.89,2.89,0,0,0,37.31,26.52Z" /><path d="M44.7,14.08S44.7,14,39.06,36H44.4L50,14.11Z" /><polygon points="22.74 31 21.89 31 21.87 31 20.56 36 20.57 36 21.43 36 21.44 36 22.75 31 22.74 31" /><polygon points="20.97 31 20.12 31 20.12 30.96 18.78 36 18.8 36 19.66 36 19.69 36 21.01 31 20.97 31" /><polygon points="23.66 31 23.61 31 22.3 36 22.34 36 23.22 36 24.52 31 23.66 31" /><polygon points="42.48 19 43.78 14 42.93 14 41.62 19 42.48 19" /><polygon points="40.74 19 42.04 14 41.19 14 39.88 19 40.74 19" /></svg>