<?xml version="1.0" encoding="UTF-8" standalone="no"?><!DOCTYPE svg PUBLIC "-//W3C//DTD SVG 1.1//EN" "http://www.w3.org/Graphics/SVG/1.1/DTD/svg11.dtd"><svg width="100%" height="100%" viewBox="0 0 70 81" version="1.1" xmlns="http://www.w3.org/2000/svg" xmlns:xlink="http://www.w3.org/1999/xlink" xml:space="preserve" xmlns:serif="http://www.serif.com/" style="fill-rule:evenodd;clip-rule:evenodd;stroke-linejoin:round;stroke-miterlimit:2;"><path d="M14.99,25.09l39.37,0l0,9.17l-14.52,0l-0,27.65l-10.33,0l0,-27.65l-14.52,0l-0,-9.17Zm44.39,4.07l10.21,0l-15,-29.16l-0.22,0.12l0,-0.12l-39.37,0l-0,0.08l-15,29.08l10.21,0l10.1,-20l28.95,0l10.12,20Zm-0,22l10.21,0l-15,29.11l-0.22,-0.12l0,0.12l-39.37,0l-0,-0.08l-15,-29l10.21,-0l10.1,19.95l28.95,-0l10.12,-19.98Z" style="fill-rule:nonzero;"/></svg>