<svg xmlns="http://www.w3.org/2000/svg" viewBox="0 0 24 24">
	<path d="m8.07 16.7-.24-.03c-.16-.03-.33-.06-.5-.09a2.07 2.07 0 0 1-.43-.1l-.59-.18c-.11-.03-.21-.07-.31-.12a.753.753 0 0 1-.35-.26c-.06-.1-.14-.2-.2-.3a.578.578 0 0 1-.12-.36c0-.03-.02-.05-.03-.07a.811.811 0 0 1-.12-.38c0-.12.01-.25.04-.36.02-.09 0-.12-.07-.17l-.4-.3c-.17-.13-.32-.28-.46-.44-.15-.15-.29-.31-.42-.47-.14-.15-.27-.32-.38-.5-.06-.11-.11-.22-.16-.33s-.08-.19-.12-.28c-.08-.2-.15-.4-.22-.59l-.24-.64c-.03-.07-.04-.14-.07-.21-.06-.17-.13-.34-.19-.52-.08-.25-.18-.5-.26-.75-.05-.13-.1-.26-.16-.4 0-.04-.03-.08-.04-.12-.01-.05 0-.1.04-.13.03-.03.08-.03.12 0 .06.03.12.07.18.12.14.12.26.26.36.42.14.24.28.48.4.72l.5.86c.03.06.07.11.12.16l1.04 1.33c.07.09.16.17.26.24l.58.37h.04c0-.08.03-.16.06-.23.02-.07.06-.17.09-.25.02-.04.02-.08 0-.12-.07-.11-.12-.23-.16-.36-.05-.14-.1-.27-.14-.4s-.07-.24-.1-.36c-.04-.15-.08-.3-.1-.45 0-.09-.02-.19-.05-.28l-.17-.2-.05-.05c-.18-.18-.33-.39-.44-.63-.05-.13-.09-.26-.12-.4-.03-.21-.03-.42 0-.62.01-.16.05-.31.12-.46.1-.22.23-.43.38-.62.03-.04.05-.09.05-.15.02-.18.06-.36.12-.54.1-.28.24-.55.4-.8.24-.34.47-.7.7-1.07.23-.37.57-.65.98-.8a.33.33 0 0 0 .19-.14c.05-.08.11-.15.17-.22.09-.11.19-.2.31-.28.06-.04.12-.1.16-.16.12-.2.31-.34.54-.4l.85-.2.57-.12c.07-.01.13-.03.2-.06.07-.01.15-.02.22-.02h3.23c.08 0 .17.02.24.05.17.06.35.1.53.13.37.08.74.14 1.11.26.17.04.32.13.44.26l.05.06c.07.11.16.19.27.26.12.09.22.19.31.31.02.03.05.05.06.08.06.1.15.17.25.2.41.17.74.47.96.85.24.4.5.77.74 1.16.17.26.31.53.4.83.04.12.06.24.06.36 0 .08.04.15.08.2.09.14.19.28.28.43.1.18.16.37.19.58.01.15.01.3 0 .46 0 .08-.03.17-.04.25-.01.09-.04.18-.08.26-.05.13-.11.25-.18.36-.14.2-.31.37-.5.53-.04.04-.06.09-.06.14 0 .08-.02.16-.04.24 0 .1-.03.19-.06.28-.02.09-.06.21-.09.31-.07.21-.14.4-.21.63-.03.1-.07.2-.14.29a.09.09 0 0 0 0 .1c.04.09.07.19.1.28v.07l.03.15.22-.13.52-.34s.06-.05.09-.09c.4-.49.77-.97 1.15-1.47.09-.12.16-.24.23-.37.18-.32.36-.64.55-.96.12-.21.25-.41.4-.6.08-.1.17-.18.28-.25.04-.02.08-.04.12-.04.03 0 .07.01.08.05v.17l-.27.72c-.09.24-.19.55-.29.83-.06.17-.12.34-.19.52s-.18.46-.27.7-.16.4-.24.57c-.04.1-.09.2-.13.29-.12.25-.29.48-.49.66-.09.09-.18.19-.26.3-.14.14-.26.29-.4.42-.15.14-.31.26-.48.37-.06.04-.12.08-.18.13v.07c.03.12.05.24.06.36a.7.7 0 0 1-.14.44c-.02.02-.03.05-.03.08 0 .13-.04.25-.12.35-.06.1-.13.2-.2.29-.09.11-.2.2-.34.26-.2.08-.4.14-.59.21s-.37.11-.56.16-.29.05-.44.08l-.34.04-.13.04c-.04.12-.13.23-.25.28-.16.12-.28.28-.35.46-.03.08-.07.16-.1.24-.1.25-.2.5-.28.75-.05.18-.12.35-.21.51-.02.03-.05.06-.08.09l-.21.21-.06.05c-.12.08-.19.21-.2.36v.1c0 .1-.1.12-.18.14-.11.02-.21.09-.27.19l-.24.3c-.09.11-.18.22-.28.32-.12.13-.25.24-.4.33-.17.09-.33.18-.5.28-.05.04-.1.08-.14.12l-.11.09s-.09.03-.13 0a.481.481 0 0 1-.16-.12.47.47 0 0 0-.15-.13c-.16-.09-.32-.17-.48-.26-.13-.07-.25-.17-.36-.28-.11-.12-.22-.23-.32-.35s-.13-.17-.2-.25-.11-.18-.23-.22l-.14-.04c-.08-.01-.13-.08-.13-.16 0-.06-.01-.13-.03-.19a.207.207 0 0 0-.06-.1l-.27-.27c-.09-.09-.08-.05-.1-.08a1.2 1.2 0 0 1-.25-.44c-.09-.28-.19-.56-.29-.84-.07-.18-.15-.34-.23-.51a.52.52 0 0 0-.2-.24c-.08-.05-.15-.1-.22-.17a.171.171 0 0 1-.12-.16Zm4.48 1.86.2-.25.14.09.12-.18h.13c0-.08 0-.15.03-.22 0-.04.02-.07.04-.1.05-.05.11-.1.16-.15l.1.06v-.2l.07-.05.12.05c-.02-.07-.05-.12-.06-.17v-.08c0-.07.05-.14.08-.21.01-.03.04-.05.08-.04h.13s-.07-.05-.11-.07c-.02 0-.03-.02-.04-.04-.03-.08-.04-.17-.03-.26 0-.02.01-.05.03-.06.04-.04.06-.09.07-.15.01-.06.03-.13.06-.19.02-.07.03-.15.04-.22 0-.12 0-.24-.03-.37v-.12c-.01-.06.02-.12.08-.14h.11c.14 0 .25.1.28.24.05.2.07.41.06.61 0 .11 0 .22.03.33.03.11.02.22-.03.32.16.14.29.33.35.54.1-.06.17-.16.2-.28.1-.27.19-.53.28-.8.08-.24.11-.49.08-.74a.814.814 0 0 0-.18-.45c-.18-.22-.3-.48-.34-.76-.05-.33-.09-.66-.12-1a.82.82 0 0 1 .03-.44l.06-.14-.05.05-.31.28s-.11.04-.16 0a.475.475 0 0 0-.24-.06c-.09-.02-.19 0-.25.07.04.17.11.33.22.47.11.14.17.31.17.49 0 .04 0 .08-.03.12-.09-.1-.15-.23-.29-.29 0 .14-.03.27-.07.4a.46.46 0 0 0-.37-.21c-.03.26-.09.51-.18.75a2.6 2.6 0 0 0-.44-.86l-.04.2-.06-.09c-.01-.04-.05-.06-.09-.06-.14 0-.26.08-.33.2-.03.06-.05.13-.08.2a.631.631 0 0 1-.17-.43c0 .16-.07.31-.18.43l-.04-.12a.363.363 0 0 0-.33-.27c-.05-.01-.1.02-.12.07l-.04.1c-.03-.08-.02-.15-.06-.21-.18.25-.33.53-.42.83-.03-.05-.04-.1-.06-.16l-.09-.51v-.06c-.17 0-.26.11-.38.22l-.06-.4c-.14.06-.2.19-.29.3v-.12c0-.1.03-.2.06-.3.03-.1.09-.2.16-.28.07-.13.13-.26.17-.4a.274.274 0 0 0-.23-.08c-.09 0-.17.04-.24.09a.09.09 0 0 1-.1 0 .218.218 0 0 1-.08-.05l-.34-.31.06.13c.05.14.06.29.03.44-.03.29-.07.58-.1.87-.02.22-.08.44-.18.64-.05.09-.12.18-.18.26-.08.11-.14.24-.16.38-.05.23-.04.47.03.7.09.31.2.61.32.92.03.1.1.19.19.24.07-.21.19-.39.35-.54a.553.553 0 0 1-.03-.31c.04-.1.05-.22.02-.33.03-.21.06-.4.1-.62.02-.07.05-.13.11-.17.07-.05.15-.07.23-.08.07 0 .13.05.14.12v.1c0 .12-.02.23-.04.35-.01.1 0 .2.04.3.03.07.04.15.07.22 0 .03.02.05.04.08.05.06.07.13.05.21 0 .04-.01.08-.03.11 0 .03-.02.06-.05.07l-.13.06h.22l.09.24v.08c-.02.06-.05.13-.09.18l.12-.06.07.05-.02.2.11-.06s.1.09.14.12c.04.03.06.07.06.12 0 .07 0 .15.03.22H11s.09.02.11.07c0 .04.05.08.08.12l.14-.08c.05.07.1.13.15.19.03.04.03.1 0 .14-.03.06-.03.13 0 .19l.15-.04.15-.03v-.18q.1-.19.32-.18h.03s.05 0 .06.04c.08.08.13.2.13.32l.29.07c.05-.08 0-.16-.03-.25ZM7.01 7.75c.05.26.03.52-.05.77-.03.1-.03.21 0 .31.06.26.13.51.21.76.04.16.12.3.22.42.1.1.21.19.33.26.14.1.31.14.48.11l.44-.07c.17-.02.33-.1.45-.22.04-.04.09-.06.14-.08.09-.02.18-.03.28-.04h.06c.09.07.16.17.2.28.07.22.12.44.14.67 0 .06.02.11.06.16l.06-.56v-.13a.39.39 0 0 1 0-.3v-.04c.01-.12 0-.23-.03-.35a.664.664 0 0 0-.06-.2c-.02-.1-.08-.2-.17-.26a1.35 1.35 0 0 0-.26-.15c-.17-.07-.33-.18-.44-.33L9 8.66a.227.227 0 0 0-.16-.11c-.21-.06-.44 0-.6.15-.08.07-.18.13-.26.2-.04.04-.11.04-.15 0-.04-.04-.09-.07-.12-.12-.25-.29-.47-.61-.64-.95l-.05-.12Zm10.01.03-.05.08c-.18.33-.4.65-.64.93l-.12.12c-.04.04-.11.04-.15 0-.08-.05-.16-.11-.24-.18a.715.715 0 0 0-.33-.18.616.616 0 0 0-.33 0 .28.28 0 0 0-.14.1c-.06.08-.12.15-.18.22-.06.08-.14.14-.23.18l-.25.12c-.14.06-.24.18-.28.32-.03.13-.05.27-.07.4-.01.08 0 .16.02.23.02.06.02.12 0 .18s-.03.13-.03.19c0 .18.03.36.06.54l.02.04c.02-.05.03-.11.04-.16.02-.21.07-.43.13-.63.04-.11.1-.21.19-.28.02-.03.06-.04.1-.03.05.01.11.02.16.02.11 0 .21.05.28.14.08.08.17.13.28.15.23.05.46.09.69.1.09 0 .18-.01.26-.06.13-.07.25-.16.36-.25.08-.07.14-.15.19-.24.05-.1.1-.21.13-.32.06-.22.12-.44.18-.67.04-.12.04-.24 0-.36-.06-.17-.09-.36-.06-.54v-.16Zm-6.11 3.79.03.14c.01.05.03.09.06.13.05.07.12.14.17.2.09.11.2.19.33.24.16.05.32.13.45.24.03.03.08.03.11 0l.06-.04c.09-.07.18-.13.29-.17l.19-.08c.09-.04.16-.09.22-.16.08-.08.15-.16.23-.24.04-.04.07-.1.08-.16v-.15h.08v.26h.02l.07-.04c.17-.11.33-.23.48-.37.04-.04.1-.06.16-.11-.01-.24-.04-.47-.1-.7l-.06.08s-.11-.03-.15 0l-.17.13-.26.21c-.1.08-.23.13-.36.16-.12 0-.24.03-.36.06-.19 0-.38.05-.54.16a.449.449 0 0 0-.27-.1l-.44-.06c-.21-.02-.41-.11-.57-.24-.08-.07-.15-.13-.24-.2a.864.864 0 0 0-.16-.1.37.37 0 0 1-.14-.07c-.04.22-.07.44-.1.66 0 .03 0 .06.04.06.05.01.09.04.13.08.16.15.34.29.52.4l.09.04v-.23l.1-.03ZM6 11.36l.1.06.3.18c.28.22.55.46.8.71.13.14.22.3.28.48.03.07.05.14.05.21v.48c.35-.11.68-.25 1.01-.4l-.03-.06c-.15-.32-.35-.62-.58-.89a1.72 1.72 0 0 0-.4-.36c-.04-.03-.09-.05-.13-.07-.35-.13-.71-.23-1.07-.3L6 11.36Zm9.46 1.74c.34.14.66.27 1.01.4v-.24c-.01-.19.03-.38.12-.55 0-.03.03-.07.05-.11.01-.03.03-.05.05-.08.2-.2.4-.4.61-.59.22-.2.46-.38.72-.53l.04-.04c-.15 0-.3.02-.44.05-.23.05-.47.1-.7.17-.23.05-.44.15-.61.3l-.1.1c-.13.16-.26.31-.38.47-.16.2-.29.42-.4.65h.03Zm-.19.57v.06a.66.66 0 0 0-.06.27c.04.18.07.36.1.54 0 .08.07.14.15.15h.11c.11-.01.22-.03.33-.05.16-.02.3-.1.4-.22.06-.06.1-.14.12-.22-.4-.14-.79-.31-1.16-.52h.02Zm-6.46-.01c-.38.22-.78.4-1.2.54.02.09.07.17.13.24.1.12.24.2.4.22h.04c.1.02.2.03.3.04.18 0 .22-.04.25-.18s.06-.4.1-.57c0-.1 0-.19-.03-.29Z"/>
</svg>