<svg xmlns="http://www.w3.org/2000/svg" width="80" height="80" viewBox="0 0 211 199" fill="#757575"><path d="M889 914h.1c-.03-.01-.07-.03-.1-.04v.04z"></path> <path d="M201.11 39.03c1.69-.96 3.96-2.09 5.89-3.02-7.5-17.08-24.57-29.05-44.39-29.05-17.69 0-33.2 9.53-41.66 23.73-4.58-2.99-10.04-4.73-15.9-4.73-5.69 0-11 1.64-15.5 4.47C81.82 17.65 68.34 8.7 52.72 7.2c-1.54-.15-3.1-.23-4.68-.23-.65 0-1.29.02-1.93.05-18.69.73-34.69 12.1-42.11 28.2l5.64 3.59c5.92-13.62 18.89-23.49 34.27-25v7.47c-17.04 2.05-30.29 16.58-30.29 34.17s13.25 32.1 30.29 34.15v7.47c-14.24-1.4-26.41-9.96-32.84-22.03l-6.02 2.74c7.03 13.47 20.19 23.25 35.77 25.58-7.26 4.9-13.12 11.71-16.87 19.71l6.15 2.46c5.46-11.4 15.94-19.95 28.55-22.8.12-.03.23-.05.35-.07 2.86-.62 5.83-.95 8.88-.95 9.5 0 18.27 3.19 25.3 8.54l-5.87 4.92c-5.53-3.8-12.23-6.03-19.43-6.03-17.2 0-31.5 12.68-34.03 29.19-.26 1.71-.4 3.45-.4 5.23 0 .46.02.92.03 1.38.53 13.45 8.82 24.93 20.51 30.1l1.47-6.62c-8.73-4.38-14.87-13.19-15.37-23.48h13.25c-.04-.45-.07-.91-.07-1.38 0-1.85.36-3.61.99-5.23 2.11-5.47 7.41-9.36 13.61-9.36 8.05 0 14.6 6.55 14.6 14.6 0 7.2-5.25 13.19-12.12 14.37-.81.14-1.63.23-2.48.23-1.43 0-2.82-.21-4.13-.6v27.65c-15.06-1.48-27.79-10.98-33.88-24.15l-6.22 2.26c7.58 16.9 24.55 28.7 44.24 28.7 15.07 0 28.56-6.92 37.45-17.74 8.9 10.82 22.38 17.74 37.45 17.74 20.2 0 37.54-12.42 44.81-30.03l-6.23-2.25c-1.5 3.56-3.47 6.87-5.85 9.84l-4.89-5.83c3.68-5.05 6.01-11.14 6.48-17.73.06-.82.1-1.64.1-2.48 0-1.4-.09-2.78-.26-4.13-.15-1.21-.36-2.39-.63-3.56-2.33-10.15-9.14-18.61-18.25-23.14l-2.28 6.28c6.24 3.32 11.08 8.93 13.36 15.73.51 1.51.89 3.08 1.14 4.69.05.36.08.73.12 1.1h-13.03v3.03c0 .85-.09 1.67-.23 2.48-1.18 6.87-7.17 12.12-14.37 12.12-8.05 0-14.6-6.55-14.6-14.6 0-5.83 3.44-10.85 8.39-13.19 1.89-.89 3.99-1.41 6.21-1.41.09 0 .17.01.26.01l-1.75-6.55-1.74-6.49-1.73-6.44c-2.21.32-4.36.86-6.42 1.58-7.73 2.72-14.2 8.12-18.3 15.08-1.85 3.14-3.21 6.58-3.99 10.25-.49 2.31-.75 4.7-.75 7.15s.26 4.85.75 7.15c.78 3.67 2.14 7.11 3.99 10.25 5.99 10.17 17.05 17.02 29.68 17.02 9.03 0 17.26-3.5 23.41-9.22l4.79 5.7c-7.45 6.8-17.34 10.95-28.2 10.95-13.67 0-25.82-6.58-33.47-16.74-1.52-2.02-2.85-4.18-3.99-6.45-1.14 2.28-2.47 4.44-3.99 6.45-.75 1-1.55 1.96-2.39 2.89l-4.87-5.73.03-.03c1.28-1.51 2.43-3.12 3.44-4.84 1.85-3.14 3.21-6.58 3.99-10.25.49-2.31.75-4.7.75-7.15s-.26-4.85-.75-7.15c-.78-3.67-2.14-7.11-3.99-10.25-1.43-2.43-3.15-4.67-5.11-6.68l5.7-4.79c1.13 1.19 2.2 2.44 3.19 3.75 1.52 2.02 2.85 4.18 3.99 6.45 1.14-2.28 2.47-4.44 3.99-6.45-1.2-1.97-2.53-3.84-3.99-5.61-7.45-9.06-18.11-15.38-30.23-17.2-2.36-.35-4.77-.54-7.23-.54-5.29 0-10.38.86-15.15 2.44-.75.25-1.47.54-2.2.82v-8.59c.74-.06 1.48-.13 2.2-.23 12.01-1.64 22.06-9.5 26.81-20.21 1.35 2.43 3.04 4.65 5 6.59 1.58 1.57 3.34 2.95 5.25 4.12 3.71 2.28 7.96 3.76 12.51 4.19.91.09 1.82.13 2.75.13 1.31 0 2.59-.1 3.86-.26V66.06c-1.21.43-2.5.67-3.86.67-.95 0-1.87-.13-2.75-.34-2.52-.62-4.72-2.05-6.29-4.02-1.59-1.98-2.54-4.49-2.54-7.22 0-2.69.93-5.17 2.48-7.14 2.12-2.7 5.41-4.44 9.1-4.44 3.97 0 7.49 2.01 9.57 5.07 1.27 1.86 2.01 4.1 2.01 6.51 0 1.38-.25 2.7-.7 3.92l6.02 2.68c.81-2.05 1.28-4.26 1.28-6.6 0-2.75-.63-5.35-1.73-7.69-1.2-2.56-2.97-4.8-5.16-6.54-3.11-2.48-7.03-3.97-11.31-3.97-4.08 0-7.83 1.36-10.87 3.64-2.15 1.61-3.94 3.67-5.21 6.06-1.35 2.54-2.12 5.43-2.12 8.5 0 3.14.8 6.09 2.2 8.67 1.29 2.37 3.11 4.41 5.27 6 2.31 1.69 5.02 2.84 7.97 3.29v4.43c-3.48-.43-6.71-1.64-9.52-3.47-1.99-1.3-3.77-2.89-5.26-4.73-3.15-3.88-5.05-8.82-5.05-14.2 0-5.3 1.85-10.17 4.92-14.03 1.47-1.85 3.23-3.47 5.2-4.79 3.57-2.38 7.86-3.77 12.46-3.77 4.79 0 9.23 1.51 12.88 4.06 1.98 1.38 3.71 3.07 5.16 5 .81-2.32 1.82-4.55 3.01-6.66 1.56-2.77 3.41-5.35 5.53-7.68l4.84 5.76c-2.24 2.61-4.1 5.56-5.48 8.75-1.81 4.18-2.82 8.78-2.82 13.62 0 4.72.96 9.22 2.69 13.33 4.84 11.5 15.76 19.82 28.71 20.96v7.46c-14.51-1.04-27-9.51-33.67-21.62-1.56 1.6-3.3 3.01-5.19 4.22 3.7 6.34 8.77 11.77 14.84 15.86 6.95 4.69 15.17 7.62 24.02 8.17 1 .06 2.01.1 3.03.1.55 0 1.09-.02 1.63-.04.65-.03 1.3-.06 1.95-.11V76.28c9.99-1.71 17.63-10.41 17.63-20.88 0-11.69-9.51-21.21-21.21-21.21-10.66 0-19.49 7.92-20.96 18.18h-6.68c1.51-13.92 13.33-24.79 27.65-24.79 15.34 0 27.81 12.48 27.81 27.81 0 11.34-6.83 21.1-16.59 25.42l2.1 6.31c12.38-5.22 21.09-17.47 21.09-31.73 0-18.98-15.44-34.42-34.42-34.42-8.06 0-15.48 2.79-21.36 7.45l-4.78-5.69c7.17-5.75 16.25-9.2 26.13-9.2 17.35.05 32.2 10.55 38.59 25.5zm-157.2 43.9c-13.38-2-23.68-13.56-23.68-27.49s10.3-25.49 23.68-27.49v54.98zm98.87 88.45c-12.95 0-23.85-8.89-26.94-20.89-.57-2.22-.87-4.54-.87-6.93 0-2.39.3-4.71.87-6.93 2.28-8.85 8.81-16 17.28-19.15l1.72 6.43c-7.77 3.15-13.26 10.76-13.26 19.65 0 11.69 9.51 21.21 21.21 21.21 10.47 0 19.16-7.64 20.87-17.63h6.71c-1.78 13.65-13.47 24.24-27.59 24.24zm-47.97-34.75c.57 2.22.87 4.54.87 6.93 0 2.39-.3 4.71-.87 6.93-.97 3.78-2.74 7.24-5.08 10.22-1.37 1.74-2.95 3.32-4.69 4.69l4.29 5.05 4.81 5.67c-6.59 5.33-14.81 8.7-23.79 9.22V164.6c10.53-1.23 18.73-10.2 18.73-21.05 0-11.69-9.51-21.21-21.21-21.21-9.88 0-18.19 6.81-20.53 15.97h-6.79c2.46-12.84 13.77-22.58 27.31-22.58 12.96.02 23.86 8.91 26.95 20.9zM79.39 41.25c-3.41-7.51-9.46-13.58-16.94-17.04l-2.6 6.07c9.45 4.45 16.01 14.05 16.01 25.17 0 13.74-10.02 25.18-23.13 27.41-.73.12-1.46.22-2.2.28V13.66c.74.05 1.47.11 2.2.19 13.52 1.51 25.11 9.49 31.61 20.77-1.95 1.96-3.62 4.18-4.95 6.63zm62.34 17.77h6.75c-.29-1.15-.46-2.34-.46-3.58 0-1.04.11-2.05.32-3.03 1.4-6.6 7.27-11.57 14.28-11.57 8.05 0 14.6 6.55 14.6 14.6 0 6.81-4.7 12.53-11.02 14.13-1.15.29-2.34.46-3.58.46-1.04 0-2.05-.11-3.03-.32v13.37c-12.74-1.39-22.91-11.41-24.55-24.07h6.69z"></path></svg>