<svg xmlns="http://www.w3.org/2000/svg" viewBox="0 0 50 50"><title>CNOUnav</title><path d="M24.61,8.1C23.92,9,11.16,19.22,3.34,27-.38,31.24-3.93,32.72,10,37.38c9.36,3,12,3.8,14.58,4.5V40.45c-2.22-1.35-8.08-4.87-10.72-6.59-3.2-2.06-1.81-2.61-.68-5C16.84,22.89,22.75,14,24.61,11Z" style="fill:#757575"/><path d="M25.39,8.1C26.08,9,38.84,19.22,46.66,27c3.72,4.28,7.26,5.75-6.69,10.4-9.36,3-12,3.8-14.58,4.5V40.45c2.22-1.35,8.08-4.87,10.72-6.59,3.2-2.06,1.81-2.61.68-5C33.16,22.89,27.25,14,25.39,11Z" style="fill:#757575"/></svg>