<svg xmlns="http://www.w3.org/2000/svg" viewBox="0 0 50 50"><title>CRSDnav</title><path d="M30.15,22.48V29.7a7.85,7.85,0,0,1,2.14,2.74H39a14.21,14.21,0,0,0-8.85-10Zm-9.88,0A14.2,14.2,0,1,0,39,39.15H32.3a7.85,7.85,0,1,1-12-9.46Z" style="fill:#757575"/><path d="M25.21,21.58A14.25,14.25,0,0,0,22,22V41.69a7.85,7.85,0,0,0,6.46,0V22A14.25,14.25,0,0,0,25.21,21.58Z" style="fill:#757575"/><path d="M25.35,0a3,3,0,0,0-1.9,5.33v11H14l4.6,3.08H22v1.28a14.33,14.33,0,0,1,6.46,0V19.41H31.9l4.87-3.08h-9.5v-11A3,3,0,0,0,25.35,0Z" style="fill:#757575"/></svg>