<svg xmlns="http://www.w3.org/2000/svg" viewBox="0 0 50 50"><title>DRAKnav</title><path d="M0,15.26H7.8l1.13,1.18v7.1L7.8,24.69H0V18.12H2.34v4.24H6.55V17.58H0V15.26" style="fill:#757575"/><path d="M10.09,16.35l1.15-1.09h1.18v3.49h4.67V17.54H13V15.26h6.4V21.1H17L19.41,23v1.73H17.67L13,21.09h-.62v3.6H10.09Z" style="fill:#757575"/><path d="M20.68,15.23H30v9.44H27.62V17.55H20.68v-2.3" style="fill:#757575"/><path d="M32.31,15.26l1.11,1.08V24.7H31.14V16.34Z" style="fill:#757575"/><path d="M38.54,15.25H40.2v1.56l-2.89,2.87L40.54,23v1.69H38.9l-3.38-3.57L34,22.33v-3.2l4.49-3.87" style="fill:#757575"/><path d="M41.06,15.26h7.8L50,16.36l-1.13,1.19h-7.8Z" style="fill:#757575"/><path d="M20.68,18.12H23v1.5h3.1l1.19,1.16L26.1,21.92H23V24.7H20.68Z" style="fill:#757575"/><path d="M41.06,18.09h2.31v.66h4.28L48.75,20l-1.11,1.1H43.37v1.32h5.5L50,23.51l-1.12,1.18H42.16l-1.1-1.22V18.12" style="fill:#757575"/><rect x="25.69" y="27.67" width="0.62" height="2.33" style="fill:#757575"/><rect x="14.83" y="27.67" width="0.62" height="2.33" style="fill:#757575"/><rect x="18.54" y="27.67" width="0.62" height="2.33" style="fill:#757575"/><rect x="39.91" y="27.67" width="0.62" height="2.33" style="fill:#757575"/><path d="M0,25.77v9H50v-9Zm1.86,7.9H1.24V27h.62Zm3.73-.07H5q-.13-1.06-.33-2.11t-.34-2.17V33.6H3.71V26.89h.58q.16,1,.37,2.11T5,31.16V30l-.05-.61V26.91h.64ZM9,27.67H8.43v6H7.81v-6H7.19V27H9Zm3.52,0H11.28V30h.93v.67h-.93V33h1.24v.7H11.28a.59.59,0,0,1-.44-.2.74.74,0,0,1-.18-.5V27.7a.7.7,0,0,1,.18-.49.58.58,0,0,1,.44-.21h1.24Zm3,6a1.75,1.75,0,0,1-.09-.23.86.86,0,0,1,0-.26v-2.5h-.62v3h-.62V27h1.25a.55.55,0,0,1,.44.21.69.69,0,0,1,.18.49v2.11a.6.6,0,0,1-.08.36.71.71,0,0,1-.19.18.39.39,0,0,1,.19.18.86.86,0,0,1,.07.44v2.23a.72.72,0,0,0,0,.25,2.33,2.33,0,0,0,.11.24ZM19.78,30a.72.72,0,0,1-.18.5.56.56,0,0,1-.44.2h-.62v3h-.62V27h1.24a.55.55,0,0,1,.44.21.69.69,0,0,1,.18.49Zm3.6,3.7H21.52V27h.62v6h.62V31.59h.62Zm3.55,0h-.62v-3h-.62v3h-.62V28a1.07,1.07,0,0,1,.08-.4,1.11,1.11,0,0,1,.2-.33,1,1,0,0,1,.29-.22.81.81,0,0,1,.72,0,1,1,0,0,1,.29.22,1.11,1.11,0,0,1,.2.33,1.07,1.07,0,0,1,.08.4Zm3.78,0h-.59q-.18-1.06-.38-2.11t-.34-2.17v4.28h-.62V27h.59a16.18,16.18,0,0,0,.28,2.11q.21,1.05.35,2.17V27h.71Zm3.67-6H33.14V30h.93v.67h-.93V33h1.24v.7H33.14a.59.59,0,0,1-.44-.2.74.74,0,0,1-.18-.5V27.7a.7.7,0,0,1,.18-.49.58.58,0,0,1,.44-.21h1.24Zm3.29,0h-.62v6h-.62v-6h-.62V27h1.86Zm3.48,6h-.62v-3h-.62v3h-.62V28a1.07,1.07,0,0,1,.08-.4,1.11,1.11,0,0,1,.2-.33,1,1,0,0,1,.29-.22.81.81,0,0,1,.72,0,1,1,0,0,1,.29.22,1.11,1.11,0,0,1,.2.33,1.07,1.07,0,0,1,.08.4Zm3.18,0a1.75,1.75,0,0,1-.09-.23.86.86,0,0,1,0-.26v-2.5h-.62v3H43V27h1.27a.55.55,0,0,1,.44.21.69.69,0,0,1,.18.49v2.11a.6.6,0,0,1-.08.36.71.71,0,0,1-.19.18.39.39,0,0,1,.19.18.86.86,0,0,1,.08.44v2.23a.72.72,0,0,0,0,.25,2.33,2.33,0,0,0,.11.24Zm4.29-4a1.12,1.12,0,0,1-.17.6,1,1,0,0,1-.45.38v3h-.64l0-3a1,1,0,0,1-.45-.38,1.12,1.12,0,0,1-.17-.6V27h.62v3H48V27h.62Z" style="fill:#757575"/><rect x="43.62" y="27.67" width="0.62" height="2.33" style="fill:#757575"/></svg>