<svg version="1.1" id="Layer_1" xmlns="http://www.w3.org/2000/svg" x="0" y="0" viewBox="0 0 50 50" xml:space="preserve" enable-background="new 0 0 50 50"><style>.st1{fill-rule:evenodd;clip-rule:evenodd;fill:#fff}</style><g id="Atoms_x2F_Logo_x2F_Esperia_x2F_1" transform="translate(179)"><g id="Lion-Image" transform="translate(2.894 2.938)"><defs><filter id="Adobe_OpacityMaskFilter" filterUnits="userSpaceOnUse" x="-156.1" y="31.4" width="19.7" height="15.6"><feColorMatrix values="1 0 0 0 0 0 1 0 0 0 0 0 1 0 0 0 0 0 1 0"/></filter></defs><mask maskUnits="userSpaceOnUse" x="-156.1" y="31.4" width="19.7" height="15.6" id="mask-2_4_"><g filter="url(#Adobe_OpacityMaskFilter)"><path id="path-1_4_" class="st1" d="M-177.1-2.9h40.7v50h-40.7z"/></g></mask><path id="Rectangle-1" mask="url(#mask-2_4_)" fill-rule="evenodd" clip-rule="evenodd" fill="#757575" d="M-136.4 47.1V31.4l-19.7 15.7z"/><defs><filter id="Adobe_OpacityMaskFilter_1_" filterUnits="userSpaceOnUse" x="-144.2" y="0" width="7.8" height="24.1"><feColorMatrix values="1 0 0 0 0 0 1 0 0 0 0 0 1 0 0 0 0 0 1 0"/></filter></defs><mask maskUnits="userSpaceOnUse" x="-144.2" y="0" width="7.8" height="24.1" id="mask-2_3_"><g filter="url(#Adobe_OpacityMaskFilter_1_)"><path id="path-1_3_" class="st1" d="M-177.1-2.9h40.7v50h-40.7z"/></g></mask><path id="Rectangle-2" mask="url(#mask-2_3_)" fill-rule="evenodd" clip-rule="evenodd" fill="#757575" d="M-136.4 24.1V0l-7.8 12.4z"/><defs><filter id="Adobe_OpacityMaskFilter_2_" filterUnits="userSpaceOnUse" x="-146.8" y="-2.9" width="9" height="8.9"><feColorMatrix values="1 0 0 0 0 0 1 0 0 0 0 0 1 0 0 0 0 0 1 0"/></filter></defs><mask maskUnits="userSpaceOnUse" x="-146.8" y="-2.9" width="9" height="8.9" id="mask-2_2_"><g filter="url(#Adobe_OpacityMaskFilter_2_)"><path id="path-1_2_" class="st1" d="M-177.1-2.9h40.7v50h-40.7z"/></g></mask><path id="Rectangle-3" d="M-146.8-2.9c1 .8 1.9 1.9 2.6 3.2.8 1.4 1.1 3.3.9 5.7l5.4-8.9h-8.9z" mask="url(#mask-2_2_)" fill-rule="evenodd" clip-rule="evenodd" fill="#757575"/><defs><filter id="Adobe_OpacityMaskFilter_3_" filterUnits="userSpaceOnUse" x="-177.4" y="-2.9" width="39.8" height="50"><feColorMatrix values="1 0 0 0 0 0 1 0 0 0 0 0 1 0 0 0 0 0 1 0"/></filter></defs><mask maskUnits="userSpaceOnUse" x="-177.4" y="-2.9" width="39.8" height="50" id="mask-2_1_"><g filter="url(#Adobe_OpacityMaskFilter_3_)"><path id="path-1_1_" class="st1" d="M-177.1-2.9h40.7v50h-40.7z"/></g></mask><path id="Lion-Shape" d="M-167.5 23.2c-5.5 5.7-1.5 11.6 2.5 13.3 3.9 1.7 5 5.5 2.4 9.1.1-4.1-3.6-6.4-5.8-4.5-.8.6-1.6 2.2-1.3 6h-1.3c-.2-3.7-2.7-6.7-3.7-7.7-4.1-4-4.7-14.8 7.2-16.2zm-9.6 17.2c2.5 1.5 4 3.3 4.4 6.7h-4.4v-6.7zm18.4-43.3c1.8 1.4 3.5 2.8 5.2 4.4-.1-.9-.4-1.7-.9-2.4-.4-.7-.9-1.4-1.3-2H-150.1c2 1.7 4.8 4.5 4.3 8.7-.3 3-1.4 4.5-1.4 5.8 0 .9 1.4 3.1 4.1 6.6-.1 1-.2 1.6-.2 1.7 1.9 2.5 3.8 4.9 5.7 7.4-.5 1.4-1.7 3-2.8 3.8-.6-.3-.8-.9-.7-1.3 0-.4.4-1 .4-1.9l-.8-.3c-1 2.1-.2 3.5.8 4.2-2.2 1.5-4.4 2.9-7.2 2.9v-1.3c-1 .5-2.9 1.2-2.9 1.1 1.9-2 1.4-4.7.1-5.7-1.3-1-3.8-1.5-6.8 0-.3 2.1.3 4.7 2.2 6.3 1.2-.2 2.1-.2 3.5-.8l-.6 1.6c.4.1 3.8.5 3.8.5-1.6 2.4-3.2 6.2-10.7 8.8 4.2-4.7 1.8-8-.7-9-4-1.5-4.9-5.3-4.4-6.8-.8.3-1.9 2.1-.9 3.7-4-2.6-2.4-6.5-.9-8.5.8-.1 1.3-.1 2 .2l.2-.2c-1.1-1.1-2.3-2.1-3.5-3.3-3.8.3-7.3 1.2-9.6 4.7V14.1c3.2 0 7 1.3 8.8 2.8-1.6-2.4-5.3-5.1-8.8-5.7v-1.1V-3h2.4c10.7.1 16 .1 16 .1zm6.7 19.6l-.1.2c1.8 1.7 3.5 3.3 5.3 5h.3c-.5-.9-.9-1.7-1.4-2.6.3-.3.6-.6.9-1-1.7-.5-3.4-1.1-5-1.6zm-11.8-12.3c-1.5 1-.3 6.3 1.3 9.5-.8-3-1-7-.3-7.4.7-.4 5.3 4 7 6.2.2-2 .3-3.8.4-5.6l-.3-.1-.9 1.9c-1.2-1.2-5.7-5.5-7.2-4.5z" mask="url(#mask-2_1_)" fill-rule="evenodd" clip-rule="evenodd" fill="#757575"/></g></g></svg>