<svg xmlns="http://www.w3.org/2000/svg" id="Layer_1" data-name="Layer 1" viewBox="0 0 50 50">
  <defs>
    <style>
      .cls-1{fill:#757575;fill-rule:evenodd}
    </style>
  </defs>
  <path d="M10.426 8.85H7.213l.9 1.549-.755 1.301-3.5-6.016h7L10.267 6.7h2.572l1.874-3.223H0l7.358 12.648 4.229-7.275zm37.7-2.15L50 3.476H35.287l7.358 12.652 4.229-7.278h-2.605l-1.624 2.85-3.5-6.016h7L45.554 6.7zm-17.445.016H28.1l.589-1.016h-2.323v8.486l-1.125 1.943h-.293l-1.129-1.943V5.7H21.5l.594 1.016h-2.589l-1.882-3.24h14.942zm-21.81 9.412h2.772l1.706-2.962h4.942l-1.312-2.286h-2.315l1.488-2.58 4.509 7.833h2.774L16.152 3.476zm20.5 0H26.6l7.281-12.652 7.281 12.652H38.39l-1.7-2.962h-4.949l1.315-2.286h2.315l-1.49-2.58zM6.828 16.968h36.5l-.112.2H6.939zm3.929 6.815H39.4l-.118.206H10.87zm8.324-5.583h.7l2.644 4.547h-.915l-2.293-3.934h-1.541l-.353-.613zm-3.594.75h2.093l-.5.613h-1.239zm.444 1.871l-.534-.928-.244-.413-.4-.228-.4-.228H13.7l.238.415h.655l.8 1.382zm1.455-1.189h.58l1.789 3.115h-1.474l-.183-.319h.737l-1.249-2.181h-.721l.37.654h.307l.186.321H16.5l-.186-.321h.271l-.646-1.135-.077-.134zM16.8 22l-.183-.322h1.223l.187.322zm1.742-1.885l.184.322h1.224l-.186-.322zm.51.865l-.184-.321h1.222l.186.321zm2.89-2.772h1.3v.613h-1.3zm.575.756h-1.211l.356.613h1.386v1.34l.86.72V18.96zm-.63 1.978v.415h.819v1.39h.545v-1.04l-.885-.769zm3.66-1.978h-1.6l.706.613h.891v3.17h.915V18.96zm5.62-.756H28.43l-.354.616h2.156zm2.282.616l.937-.616h-2.844l-.354.616zm-.66.874h.953l-1.756 3.049h-.953l1.471-2.555h-1.8l.285-.494zm.161-.242l.184-.322h-1.22l-.186.322zm-3.161 1.14h-.318v.569h1.361v1.575h-.92v-.9h-1.356v-2.27h-.173l-.707-.613h1.8v1.313h.28v-.285h.718v.285h.383l-.14.322h-.2v.3h-.718zm.671-.286h-.671v.269h.671zm-2.276-.387l-.545-.475v1.373h.545zm-1.359-.484v-.419h.326l.477.415zM41.593 18.2h1.021l-.449.781h-.72l-.833 1.445H39.7l.493-.857h-1.827l.353-.613h2.441zm-3.326 2.454H37.7l-.351.615h.616l-.559.97h-.613l-.288.5h2.783l.474-.821h-.512l-.186.321h-.923l.558-.97h1.444l.354-.615zm-4.383.28l-.238.415h.819l-.8 1.39h.545l.57-.989-.471-.816zm4.421-2.734h-2.232l-.353.616h1.649zm-1.657.742h1.759l-2.186 3.8h-1.553l.183-.319h.655l1.646-2.862h-.86l-.553.948h.148l-.184.321h-1.232l.183-.321h.178l.912-1.564zm-.676 2.281h-.847l-.186.318h.849zm4-3.023h.805l-.353.616h-.8zm-32.428 0h2.618l-.441.616H7.9zm2.814 0h2.257l-.441.616H10.71zm-1.574 1.252L8.6 19.13h1.222l.187.322zm2.709.659l.184.322H12.9l-.186-.322zm.5.865l-.184-.321h1.221l.186.321zm.52-2.016h.7l2.177 3.783h-.914l-1.828-3.17H11.1l-.353-.613zm-1.068 3.783h.918l-1.709-2.967H8.439l.354.613h1.3zM24.629 24.674H12.352l4.679 8.126zm.3.075v21.775L17.17 33.046zm.295 0v21.775l7.761-13.478zm12.579-.075H25.528l7.6 8.122z" class="cls-1"/>
</svg>
