<svg id="Layer_1" data-name="Layer 1" xmlns="http://www.w3.org/2000/svg" viewBox="0 0 50 50"><defs><style>.cls-1{fill:#757575}</style></defs><path class="cls-1" d="M24.535 18.734l-.163.617h-.66l-.4.963.844-.487h.086l-.487 2.457v14.588l1.267 1.862 1.244-1.862V18.734zm.249.855L24.5 19.3h.9zm2.554 1.05h9.816l-1.05 1.59h-1.028v1.505L33.5 26.1v-3.9h-.477v4.61l-1.612 2.414v-7.016h-.476v7.738l-1.624 2.413V22.208h-.476v10.541l-1.6-2.446v-8.084h-.324zm-4.578 0l.433 1.58h-.325V30.3l-1.6 2.446V22.208h-.478v10.151l-1.613-2.413v-7.738H18.7v7.024l-1.623-2.414v-4.61H16.6v3.9l-1.58-2.37v-1.509h-1.026l-1.05-1.59z"/><path class="cls-1" d="M0 6.223l25.13 37.554L50 6.223zm25.119 35.985L1.515 6.926h46.97z"/><path class="cls-1" d="M5.022 8.766l4.329 6.505h31.3l4.329-6.505zm6.233 2.078v3.5h-1.58V9.816h1.58zm.119 2.814v-2.219l1.342-1.623h1.829l-1.526 1.851-1.071 1.3-.574.693zm1.4.682L12 13.052l1.072-1.3 1.538 2.588zm3.863-3.366v3.355h-1.58V9.816h1.58zm1.613 3.355l-.574-1.472h-.909V11.7h1.472v-.725h-1.475V9.816H19.1l.682.747v1.288l-.65.7.79 1.775zm4.372 0h-1.561l-.726-.79V9.816h1.581v3.225h.7v1.288zm2.378-.79l-.725.79h-1.537v-1.288h.682V9.816H25zm2.976.79h-1.645l-.725-.79V10.6l.714-.779h1.656v1.19h-.79v2.143h.79v1.18zm2.5-.779l-.714.779H28.1v-1.19h.79v-.39h-1.271v-1.136h2.857v1.937zm0-2.176H28.9v-.368h-.79v-1.19h1.656l.725.79v.768zm2.23 2.955h-1.58V9.816h1.58v4.513zm.119-2.857h1.948v1.19h-1.948zm2.218 2.857h-2.207v-1.19h2.207zm0-3.323h-2.207v-1.19h2.207zm2.132-.032v3.355H35.6V9.816h1.58v1.158zm1.6 3.355l-.575-1.472h-.909V11.7h1.472v-.725h-1.469V9.816h2.338l.682.747v1.288l-.649.7.79 1.775zm-27.89 1.6h.174v1.71h-.174zm5.293 0v.171h-.693v1.537h-.173V16.1h-.693v-.173zm2.294.173h-1.19v.6h1.071v.173h-1.069v.6h1.19v.173H17.11v-1.71h1.364zm-4.946-.173h.174v1.71h-.259l-1.071-1.427h-.065v1.429h-.184v-1.71h.26l1.071 1.439h.076zm7.2.952l.26-.26v-.389l-.292-.292h-1.235v1.7h.173v-.725h.92l.292.725h.184zm-1.093-.141v-.64h.985l.2.2v.249l-.2.194zm5.779-.811h-.324l-.726 1.71h.2l.206-.5h.974l.206.5h.194l-.725-1.71zm-.573 1.039l.368-.866h.086l.368.866zm5.261-1.037h-.324l-.725 1.71h.194l.206-.5h.974l.206.5h.2l-.726-1.71zm-.573 1.039l.368-.866h.086l.368.866zm-2.3.5h1.093v.173h-1.275v-1.71h.174zm9.318-1.537h.173v1.71h-.173zm-.92 0v.167h-.693v1.537h-.173V16.1h-.693v-.173zm-12.125.225v.271h-.173v-.195l-.13-.13h-.9l-.129.13v1.1l.129.13h.9l.13-.13v-.4h-.639v-.173h.812v.649l-.228.228h-1.053l-.228-.228v-1.252l.228-.227h1.049l.228.227zm15.8 0l-.011.011h.011v.26h-.184v-.195l-.119-.13h-.9l-.13.13v1.1l.13.13h.9l.119-.13v-.184h.184v.259h-.011l-.228.228h-1.042l-.227-.228h-.011v-1.24h.011l-.011-.011.238-.227h1.039l.239.227zm-5.931 0v.271h-.173v-.195l-.13-.13h-.9l-.13.13v1.1l.13.13h.9l.13-.13v-.184h.173v.259l-.238.228h-1.042l-.228-.228v-1.251l.228-.227h1.039l.238.227z"/></svg>