<svg xmlns="http://www.w3.org/2000/svg" viewBox="0 0 50 50"><title>ORIGnav</title><path d="M30.11,11.34C16.37,8.94,3.72,20.25,0,36.57,5.41,22.72,15.78,14.18,30.11,11.34Z" style="fill:#757575"/><path d="M38.78,15.49a5.59,5.59,0,0,0,.68.35A2.05,2.05,0,0,0,39,15.3c-8.67-7.24-23,1.57-28,6.43C18.6,16.25,29.65,10.64,38.78,15.49Z" style="fill:#757575"/><path d="M44.2,23.93a48.89,48.89,0,0,1-4.64,4.81,43.8,43.8,0,0,1-9,6.33c-3.27,1.79-5.48,2.49-10.72,3.63A21.36,21.36,0,0,0,31,37.55h0a30.82,30.82,0,0,0,10.87-8.19,37.48,37.48,0,0,0,4-5.43A43,43,0,0,0,50,13.4,38.44,38.44,0,0,1,44.2,23.93Z" style="fill:#757575"/><path d="M15.15,19.62C8,26.11,4.86,34.18,18.9,35.2,8.5,33.67,9.32,27.2,15.15,19.62Z" style="fill:#757575"/><path d="M22.14,17.76c-5.35,2.36-8.23,7.56-6.44,11.62s7.58,5.44,12.92,3.08a13.73,13.73,0,0,0,2.62-1.52c.29-.22.59-.54.86-.79a10.41,10.41,0,0,0,3.47-6.22,6.75,6.75,0,0,0,0-1.25,5.18,5.18,0,0,0-1.31-3.22l-.12-.12a8.44,8.44,0,0,0-6.24-2.72h-.36A13.23,13.23,0,0,0,22.14,17.76Zm7.85,0a6.21,6.21,0,0,1,2.6,1.87,5.27,5.27,0,0,1,.71,1.16A5.56,5.56,0,0,1,33.65,24a9,9,0,0,1-2.8,4.73l-.29.26h0a12,12,0,0,1-2.9,1.8,11.31,11.31,0,0,1-5.81,1,6.49,6.49,0,0,1-5.45-3.55c-1.54-3.5,1-8,5.67-10.07A10.5,10.5,0,0,1,30,17.79Z" style="fill:#757575"/><circle cx="27.72" cy="21.19" r="1.27" style="fill:#757575"/><circle cx="29.04" cy="23.38" r="0.6" style="fill:#757575"/><path d="M30.4,34.34l.3-.16h0a22.62,22.62,0,0,0,4.44-3.24,18.8,18.8,0,0,0,4.92-7c3.23-7.56-4.63-9.22-10.61-9.31,4.94.13,11.57,2.12,9.11,9.32a18.4,18.4,0,0,1-4.12,6.6,19.18,19.18,0,0,1-3.63,2.7c-6.45,3.15-14.21,4.6-20.32.87,5.16,5.41,13.46,3.32,19,.66Z" style="fill:#757575"/></svg>