<svg xmlns="http://www.w3.org/2000/svg" viewBox="0 0 50 50"><path fill="#757575" d="M16.37 12.99l-1.61-1.76-8.72 1.55.81 1.01 9.52-.8m-.87 1.34l-.62.51H6.31l.84 2.21 7.73-.57-.03 22.29 1.28-.42.45-21.21.53-1.14-1.61-1.67"/><path fill="#757575" d="M7.51 20.06l1.1.84 4.36-1.91-1.76-1.08-3.7 2.15m2.2 4.72l2.57-2.15V21.4l-4.59 2.06 2.02 1.32m34.24-12.57l-.59-1.04-9.51.8 1.67 1.75 8.43-1.51m-3.26 5.93h-5v-1L40 15.19l-.32-1.07-8.67 3L33 18.38l1.2-.54-.32 21 1.67-1.27.05-5.11h5.12v6.39l1.41-.85.32-17.51.72-1.19-1.71-1.71zm0 1.59v4.76h-5v-4.76zm-5.1 11.12v-4.76h5.05v4.76z"/></svg>